<svg width="14" height="27" viewBox="0 0 14 27" fill="none" xmlns="http://www.w3.org/2000/svg">
<path d="M0.562414 0.552879C0.384203 0.729634 0.242754 0.939923 0.146225 1.17162C0.0496963 1.40332 -1.09147e-06 1.65183 -1.0805e-06 1.90283C-1.06953e-06 2.15383 0.0496963 2.40235 0.146225 2.63405C0.242754 2.86574 0.384204 3.07603 0.562414 3.25279L9.27058 11.9609C9.44879 12.1377 9.59023 12.348 9.68676 12.5797C9.78329 12.8114 9.83299 13.0599 9.83299 13.3109C9.83299 13.5619 9.78329 13.8104 9.68676 14.0421C9.59023 14.2738 9.44879 14.4841 9.27058 14.6609L0.562415 23.369C0.384204 23.5458 0.242755 23.7561 0.146226 23.9878C0.0496973 24.2195 -9.41479e-08 24.468 -8.31763e-08 24.719C-7.22047e-08 24.97 0.0496973 25.2185 0.146226 25.4502C0.242755 25.6819 0.384205 25.8922 0.562415 26.0689C0.918655 26.4231 1.40055 26.6218 1.90286 26.6218C2.40517 26.6218 2.88707 26.4231 3.24331 26.0689L11.9705 17.3418C13.0387 16.2722 13.6387 14.8225 13.6387 13.3109C13.6387 11.7993 13.0387 10.3496 11.9705 9.28005L3.24331 0.552879C2.88707 0.198752 2.40517 -2.12643e-05 1.90286 -2.12423e-05C1.40055 -2.12204e-05 0.918654 0.198752 0.562414 0.552879Z" fill="white"/>
</svg>
