<svg width="14" height="27" viewBox="0 0 14 27" fill="none" xmlns="http://www.w3.org/2000/svg">
<path d="M13.4376 26.4471C13.6158 26.2704 13.7572 26.0601 13.8538 25.8284C13.9503 25.5967 14 25.3482 14 25.0972C14 24.8462 13.9503 24.5977 13.8538 24.366C13.7572 24.1343 13.6158 23.924 13.4376 23.7472L4.72942 15.0391C4.55121 14.8623 4.40976 14.652 4.31324 14.4203C4.21671 14.1886 4.16701 13.9401 4.16701 13.6891C4.16701 13.4381 4.21671 13.1896 4.31324 12.9579C4.40976 12.7262 4.55121 12.5159 4.72942 12.3391L13.4376 3.63098C13.6158 3.45423 13.7572 3.24394 13.8538 3.01224C13.9503 2.78054 14 2.53203 14 2.28103C14 2.03003 13.9503 1.78151 13.8538 1.54981C13.7572 1.31812 13.6158 1.10783 13.4376 0.931071C13.0813 0.576943 12.5994 0.378174 12.0971 0.378174C11.5948 0.378174 11.1129 0.576943 10.7567 0.931071L2.02951 9.65824C0.961334 10.7278 0.361348 12.1775 0.361348 13.6891C0.361348 15.2007 0.961334 16.6504 2.02951 17.7199L10.7567 26.4471C11.1129 26.8012 11.5948 27 12.0971 27C12.5994 27 13.0813 26.8012 13.4376 26.4471Z" fill="white"/>
</svg>
