<svg width="44" height="45" viewBox="0 0 44 45" fill="none" xmlns="http://www.w3.org/2000/svg">
<g clip-path="url(#clip0_253_4171)">
<path d="M22 0.209229C9.8692 0.209229 0 10.0784 0 22.2092C0 34.34 9.8692 44.2092 22 44.2092C34.1308 44.2092 44 34.34 44 22.2092C44 10.0784 34.1308 0.209229 22 0.209229ZM22 40.2092C12.0747 40.2092 4 32.1344 4 22.2092C4 12.284 12.0747 4.20923 22 4.20923C31.9253 4.20923 40 12.284 40 22.2092C40 32.1344 31.9252 40.2092 22 40.2092Z" fill="#06834D"/>
<path d="M30.2493 14.4311L18.9355 25.7448L13.7501 20.5593C12.9692 19.7784 11.7028 19.7783 10.9217 20.5592C10.1407 21.3403 10.1407 22.6065 10.9217 23.3876L17.5212 29.9873C17.8963 30.3624 18.4049 30.5732 18.9353 30.5732H18.9355C19.4659 30.5732 19.9745 30.3624 20.3496 29.9875L33.0777 17.2596C33.8588 16.4785 33.8588 15.2123 33.0777 14.4312C32.2967 13.6501 31.0304 13.65 30.2493 14.4311Z" fill="#06834D"/>
</g>
<defs>
<clipPath id="clip0_253_4171">
<rect width="44" height="44" fill="white" transform="translate(0 0.209229)"/>
</clipPath>
</defs>
</svg>
