<svg width="59" height="59" viewBox="0 0 59 59" fill="none" xmlns="http://www.w3.org/2000/svg">
<circle cx="29.4999" cy="29.5" r="29.4999" fill="#06834D"/>
<circle cx="29.4999" cy="29.5" r="28.8853" stroke="white" stroke-opacity="0.5" stroke-width="1.22916"/>
<path d="M29.5182 14.6031C33.5668 14.6031 34.0719 14.6181 35.6603 14.6926C37.2473 14.7671 38.3276 15.0159 39.2783 15.3855C40.2618 15.7639 41.0903 16.2765 41.9188 17.1035C42.6765 17.8484 43.2628 18.7495 43.6368 19.744C44.0049 20.6932 44.2552 21.775 44.3297 23.3619C44.3998 24.9504 44.4191 25.4555 44.4191 29.5041C44.4191 33.5527 44.4042 34.0579 44.3297 35.6463C44.2552 37.2333 44.0049 38.3136 43.6368 39.2643C43.2638 40.2593 42.6774 41.1606 41.9188 41.9047C41.1737 42.6622 40.2727 43.2484 39.2783 43.6228C38.3291 43.9909 37.2473 44.2412 35.6603 44.3157C34.0719 44.3857 33.5668 44.4051 29.5182 44.4051C25.4696 44.4051 24.9644 44.3902 23.376 44.3157C21.789 44.2412 20.7087 43.9909 19.758 43.6228C18.7631 43.2495 17.8619 42.6631 17.1176 41.9047C16.3597 41.1599 15.7734 40.2589 15.3995 39.2643C15.0299 38.3151 14.7811 37.2333 14.7066 35.6463C14.6366 34.0579 14.6172 33.5527 14.6172 29.5041C14.6172 25.4555 14.6321 24.9504 14.7066 23.3619C14.7811 21.7735 15.0299 20.6947 15.3995 19.744C15.7724 18.7489 16.3588 17.8476 17.1176 17.1035C17.8621 16.3454 18.7633 15.7591 19.758 15.3855C20.7087 15.0159 21.7875 14.7671 23.376 14.6926C24.9644 14.6225 25.4696 14.6031 29.5182 14.6031ZM29.5182 22.0536C27.5422 22.0536 25.6471 22.8386 24.2499 24.2358C22.8526 25.6331 22.0677 27.5281 22.0677 29.5041C22.0677 31.4801 22.8526 33.3752 24.2499 34.7724C25.6471 36.1697 27.5422 36.9546 29.5182 36.9546C31.4942 36.9546 33.3892 36.1697 34.7865 34.7724C36.1837 33.3752 36.9687 31.4801 36.9687 29.5041C36.9687 27.5281 36.1837 25.6331 34.7865 24.2358C33.3892 22.8386 31.4942 22.0536 29.5182 22.0536ZM39.2038 21.6811C39.2038 21.1871 39.0076 20.7134 38.6583 20.364C38.3089 20.0147 37.8352 19.8185 37.3412 19.8185C36.8472 19.8185 36.3734 20.0147 36.0241 20.364C35.6748 20.7134 35.4786 21.1871 35.4786 21.6811C35.4786 22.1751 35.6748 22.6489 36.0241 22.9982C36.3734 23.3475 36.8472 23.5437 37.3412 23.5437C37.8352 23.5437 38.3089 23.3475 38.6583 22.9982C39.0076 22.6489 39.2038 22.1751 39.2038 21.6811ZM29.5182 25.0338C30.7038 25.0338 31.8408 25.5048 32.6791 26.3432C33.5175 27.1815 33.9885 28.3185 33.9885 29.5041C33.9885 30.6897 33.5175 31.8268 32.6791 32.6651C31.8408 33.5034 30.7038 33.9744 29.5182 33.9744C28.3326 33.9744 27.1955 33.5034 26.3572 32.6651C25.5188 31.8268 25.0479 30.6897 25.0479 29.5041C25.0479 28.3185 25.5188 27.1815 26.3572 26.3432C27.1955 25.5048 28.3326 25.0338 29.5182 25.0338Z" fill="white"/>
</svg>
