<svg width="59" height="59" viewBox="0 0 59 59" fill="none" xmlns="http://www.w3.org/2000/svg">
<circle cx="29.4999" cy="29.5" r="29.4999" fill="#06834D"/>
<circle cx="29.4999" cy="29.5" r="28.8853" stroke="white" stroke-opacity="0.5" stroke-width="1.22916"/>
<path d="M44.01 41.3055V31.351C44.01 26.4587 42.9568 22.7216 37.2491 22.7216C34.4972 22.7216 32.6626 24.2164 31.9152 25.6433H31.8472V23.1632H26.4453V41.3055H32.085V32.3023C32.085 29.9241 32.5267 27.6478 35.4485 27.6478C38.3363 27.6478 38.3703 30.3318 38.3703 32.4382V41.2715H44.01V41.3055Z" fill="white"/>
<path d="M17.2734 23.1632H22.9132V41.3054H17.2734V23.1632Z" fill="white"/>
<path d="M20.0916 14.126C18.291 14.126 16.8301 15.5869 16.8301 17.3875C16.8301 19.1881 18.291 20.683 20.0916 20.683C21.8922 20.683 23.3531 19.1881 23.3531 17.3875C23.3531 15.5869 21.8922 14.126 20.0916 14.126Z" fill="white"/>
</svg>
