<svg width="59" height="59" viewBox="0 0 59 59" fill="none" xmlns="http://www.w3.org/2000/svg">
<circle cx="29.4999" cy="29.4999" r="29.4999" fill="#06834D"/>
<circle cx="29.4999" cy="29.4999" r="28.8853" stroke="white" stroke-opacity="0.5" stroke-width="1.22916"/>
<g clip-path="url(#clip0_2023_7513)">
<path d="M29.9403 11.6228H29.9314C20.0722 11.6228 12.0547 19.6425 12.0547 29.504C12.0547 33.4155 13.3153 37.0409 15.4588 39.9846L13.2304 46.6274L20.1034 44.4303C22.9309 46.3033 26.3037 47.3851 29.9403 47.3851C39.7996 47.3851 47.817 39.3632 47.817 29.504C47.817 19.6447 39.7996 11.6228 29.9403 11.6228ZM40.3449 36.8733C39.9135 38.0914 38.2014 39.1017 36.8358 39.3967C35.9015 39.5957 34.6811 39.7544 30.5729 38.0512C25.318 35.8741 21.934 30.5344 21.6703 30.1879C21.4177 29.8415 19.5469 27.3605 19.5469 24.7945C19.5469 22.2286 20.85 20.9791 21.3752 20.4427C21.8066 20.0024 22.5196 19.8012 23.2036 19.8012C23.4249 19.8012 23.6238 19.8124 23.8026 19.8213C24.3279 19.8437 24.5916 19.875 24.9381 20.7042C25.3695 21.7435 26.42 24.3095 26.5451 24.5732C26.6725 24.837 26.7999 25.1946 26.6211 25.5411C26.4535 25.8987 26.306 26.0574 26.0422 26.3614C25.7785 26.6653 25.5281 26.8978 25.2644 27.2241C25.023 27.508 24.7503 27.812 25.0543 28.3372C25.3583 28.8513 26.4088 30.5657 27.9555 31.9425C29.9515 33.7195 31.5697 34.2872 32.1487 34.5286C32.58 34.7074 33.0941 34.6649 33.4093 34.3297C33.8094 33.8983 34.3033 33.183 34.8062 32.479C35.1639 31.9738 35.6154 31.9112 36.0892 32.09C36.572 32.2577 39.1268 33.5205 39.652 33.782C40.1773 34.0458 40.5237 34.171 40.6511 34.3922C40.7763 34.6135 40.7763 35.6529 40.3449 36.8733Z" fill="white"/>
</g>
<defs>
<clipPath id="clip0_2023_7513">
<rect width="35.7623" height="35.7623" fill="white" transform="translate(12.0566 11.6227)"/>
</clipPath>
</defs>
</svg>
