<svg width="30" height="30" viewBox="0 0 30 30" fill="none" xmlns="http://www.w3.org/2000/svg">
<g clip-path="url(#clip0_423_10785)">
<path d="M14.666 0.535889H14.6587C6.56971 0.535889 -0.00817871 7.11561 -0.00817871 15.2064C-0.00817871 18.4156 1.02609 21.39 2.78472 23.8052L0.956407 29.2553L6.59539 27.4526C8.91516 28.9893 11.6824 29.8769 14.666 29.8769C22.755 29.8769 29.3328 23.2954 29.3328 15.2064C29.3328 7.11745 22.755 0.535889 14.666 0.535889ZM23.2024 21.2525C22.8485 22.2519 21.4438 23.0808 20.3233 23.3229C19.5568 23.4861 18.5555 23.6163 15.185 22.2189C10.8737 20.4328 8.09728 16.0518 7.88089 15.7675C7.67367 15.4833 6.13877 13.4478 6.13877 11.3426C6.13877 9.23734 7.20788 8.21223 7.63883 7.77212C7.99275 7.41086 8.57774 7.24581 9.13889 7.24581C9.32043 7.24581 9.48364 7.25498 9.63035 7.26232C10.0613 7.28066 10.2777 7.30633 10.5619 7.98668C10.9159 8.8394 11.7777 10.9446 11.8804 11.161C11.985 11.3774 12.0895 11.6708 11.9428 11.955C11.8053 12.2485 11.6842 12.3787 11.4678 12.6281C11.2514 12.8775 11.0461 13.0682 10.8297 13.3359C10.6316 13.5688 10.4079 13.8182 10.6573 14.2492C10.9067 14.6709 11.7686 16.0775 13.0376 17.2071C14.6752 18.665 16.0029 19.1308 16.4778 19.3288C16.8317 19.4755 17.2535 19.4407 17.5121 19.1656C17.8403 18.8117 18.2456 18.2249 18.6582 17.6472C18.9516 17.2328 19.3221 17.1814 19.7108 17.3281C20.1069 17.4657 22.203 18.5018 22.6339 18.7163C23.0649 18.9327 23.3491 19.0354 23.4536 19.217C23.5563 19.3985 23.5563 20.2512 23.2024 21.2525Z" fill="#06834D"/>
</g>
<defs>
<clipPath id="clip0_423_10785">
<rect width="29.341" height="29.341" fill="white" transform="translate(-0.00817871 0.535889)"/>
</clipPath>
</defs>
</svg>
