<svg width="33" height="34" viewBox="0 0 33 34" fill="none" xmlns="http://www.w3.org/2000/svg">
<path d="M25.5063 18.1933C25.5063 15.4123 23.2438 13.1498 20.4628 13.1498H10.8982L12.2494 11.7986C12.6509 11.3972 12.6509 10.7463 12.2494 10.3449C12.0487 10.1442 11.7856 10.0438 11.5225 10.0438C11.2594 10.0438 10.9964 10.1442 10.7957 10.3449L7.68959 13.451C7.49679 13.6437 7.38847 13.9052 7.38847 14.1778C7.38847 14.4504 7.49679 14.7119 7.68959 14.9046L10.7957 18.0107C11.1971 18.4122 11.848 18.4122 12.2494 18.0107C12.6509 17.6093 12.6509 16.9584 12.2494 16.557L10.8982 15.2058H20.4628C22.1101 15.2058 23.4503 16.5459 23.4503 18.1933C23.4503 19.8406 22.1101 21.1808 20.4628 21.1808H12.647C12.0793 21.1808 11.619 21.641 11.619 22.2087C11.619 22.7765 12.0793 23.2367 12.647 23.2367H20.4628C23.2439 23.2367 25.5063 20.9742 25.5063 18.1933ZM32.8947 16.6403C32.8947 7.57116 25.5165 0.192909 16.4474 0.192909C7.37825 0.192909 0 7.57116 0 16.6403C0 25.7094 7.37825 33.0876 16.4474 33.0876C25.5165 33.0876 32.8947 25.7094 32.8947 16.6403ZM30.8388 16.6403C30.8388 24.5757 24.3828 31.0317 16.4474 31.0317C8.5119 31.0317 2.05592 24.5757 2.05592 16.6403C2.05592 8.70481 8.5119 2.24883 16.4474 2.24883C24.3828 2.24883 30.8388 8.70481 30.8388 16.6403Z" fill="#0B5636"/>
</svg>
