<svg width="135" height="135" viewBox="0 0 135 135" fill="none" xmlns="http://www.w3.org/2000/svg">
<g clip-path="url(#clip0_294_5930)">
<path d="M67.5 0C30.2782 0 0 30.2811 0 67.5C0 104.719 30.2782 135 67.5 135C104.722 135 135 104.719 135 67.5C135 30.2811 104.722 0 67.5 0ZM94.3342 69.8649L54.9592 95.1774C54.4978 95.4766 53.9649 95.6251 53.4376 95.6251C52.9762 95.6251 52.5092 95.5096 52.0918 95.2818C51.1853 94.7874 50.625 93.8424 50.625 92.8125V42.1875C50.625 41.1576 51.1853 40.2126 52.0918 39.7182C52.9817 39.2294 54.0968 39.2594 54.9592 39.8226L94.3342 65.1351C95.1362 65.6514 95.6251 66.5442 95.6251 67.5C95.6251 68.4558 95.1362 69.3483 94.3342 69.8649Z" fill="#D1FAE8"/>
</g>
<defs>
<clipPath id="clip0_294_5930">
<rect width="135" height="135" fill="white"/>
</clipPath>
</defs>
</svg>
