<svg width="28" height="15" viewBox="0 0 28 15" fill="none" xmlns="http://www.w3.org/2000/svg">
<path d="M26.5025 1.42643C26.3258 1.24822 26.1155 1.10677 25.8838 1.01024C25.6521 0.913711 25.4036 0.864014 25.1526 0.864014C24.9016 0.864014 24.6531 0.913711 24.4214 1.01024C24.1897 1.10677 23.9794 1.24822 23.8026 1.42643L15.0945 10.1346C14.9177 10.3128 14.7074 10.4542 14.4757 10.5508C14.244 10.6473 13.9955 10.697 13.7445 10.697C13.4935 10.697 13.245 10.6473 13.0133 10.5508C12.7816 10.4542 12.5713 10.3128 12.3946 10.1346L3.6864 1.42643C3.50965 1.24822 3.29936 1.10677 3.06766 1.01024C2.83596 0.913711 2.58745 0.864014 2.33645 0.864014C2.08545 0.864014 1.83693 0.913711 1.60523 1.01024C1.37354 1.10677 1.16325 1.24822 0.986491 1.42643C0.632363 1.78267 0.433594 2.26457 0.433594 2.76688C0.433594 3.26918 0.632363 3.75108 0.986491 4.10732L9.71367 12.8345C10.7832 13.9027 12.2329 14.5027 13.7445 14.5027C15.2561 14.5027 16.7059 13.9027 17.7754 12.8345L26.5025 4.10732C26.8567 3.75108 27.0554 3.26918 27.0554 2.76688C27.0554 2.26457 26.8567 1.78267 26.5025 1.42643Z" fill="#06834D"/>
</svg>
