<svg width="48" height="48" viewBox="0 0 48 48" fill="none" xmlns="http://www.w3.org/2000/svg">
<g clip-path="url(#clip0_369_5873)">
<path d="M41.8501 6.77161H5.55448C2.4912 6.77161 -0.000976562 9.26378 -0.000976562 12.3271V36.0303C-0.000976562 39.0936 2.4912 41.5858 5.55448 41.5858H41.8501C44.9134 41.5858 47.4056 39.0936 47.4056 36.0303V12.3271C47.4056 9.26378 44.9134 6.77161 41.8501 6.77161ZM43.7019 36.0303C43.7019 37.0514 42.8712 37.8822 41.8501 37.8822H5.55448C4.53339 37.8822 3.70266 37.0514 3.70266 36.0303V12.3271C3.70266 11.306 4.53339 10.4752 5.55448 10.4752H41.8501C42.8712 10.4752 43.7019 11.306 43.7019 12.3271V36.0303Z" fill="#06834D"/>
<path d="M43.3856 9.08057L23.7004 23.7226L4.0152 9.08057L1.80469 12.0523L23.7004 28.3385L45.5961 12.0523L43.3856 9.08057Z" fill="#06834D"/>
</g>
<defs>
<clipPath id="clip0_369_5873">
<rect width="47.4066" height="47.4066" fill="white" transform="translate(0 0.475464)"/>
</clipPath>
</defs>
</svg>
