<svg width="57" height="56" viewBox="0 0 57 56" fill="none" xmlns="http://www.w3.org/2000/svg">
<circle cx="29.2552" cy="26.6835" r="25.6505" fill="#01A25C"/>
<path d="M10.4375 42.5875C10.1332 43.3266 9.63252 43.9971 9.21896 44.6775C8.57178 45.7422 7.8909 46.7986 7.37577 47.9359C7.12464 48.4903 6.93424 49.0663 6.67397 49.6171C6.49241 50.0013 6.35039 50.4137 6.22667 50.8202C6.14882 51.076 6.44093 50.7966 6.5313 50.7431C7.49356 50.1725 8.49553 49.7606 9.56215 49.4243C11.2382 48.8958 12.9379 48.4458 14.6174 47.9281C14.9606 47.8224 15.3283 47.7312 15.6605 47.5888C15.6719 47.5839 15.8045 47.5366 15.7357 47.5136C15.265 47.3567 14.7596 47.0863 14.3359 46.8369C13.2893 46.2208 12.6053 45.2033 11.7774 44.3459C11.7716 44.3398 11.6416 44.1827 11.602 44.1916C11.5306 44.2078 11.3549 44.3961 11.3514 44.3999C11.1294 44.6366 10.8832 44.9439 10.6881 45.1942C10.2751 45.7241 9.89175 46.2765 9.45611 46.7887C9.01418 47.3082 8.50873 47.7583 8.04094 48.2521C8.01553 48.2789 7.93266 48.3369 7.96961 48.3369C8.01538 48.3369 8.04256 48.2815 8.07757 48.2521C8.1724 48.1722 8.2632 48.0877 8.35907 48.0091C9.15177 47.3595 9.99574 46.7884 10.9388 46.378C11.1533 46.2847 11.6357 46.0563 11.9086 46.0811C12.0006 46.0895 11.8125 46.2419 11.7447 46.3048C11.3811 46.6418 10.8233 47.1216 10.476 47.4211C10.035 47.8015 9.45729 48.2014 9.05315 48.6377C8.98361 48.7127 9.23641 48.5465 9.32693 48.4988C9.73332 48.2847 10.1755 48.052 10.5879 47.8626C12.0611 47.186 13.6268 46.6119 15.2614 46.5438" stroke="#01A25C" stroke-width="2.6535" stroke-linecap="round"/>
<path fill-rule="evenodd" clip-rule="evenodd" d="M35.4643 31.2676C34.4097 31.6986 33.736 33.3496 33.0525 34.1931C32.7021 34.6252 32.2841 34.6926 31.7454 34.4761C27.7871 32.8991 24.7528 30.2576 22.5685 26.6149C22.1985 26.0501 22.2649 25.6038 22.7111 25.0793C23.3706 24.3022 24.1999 23.4195 24.3784 22.3725C24.7746 20.0565 21.7468 12.8723 17.7482 16.1276C6.24226 25.5037 36.9423 50.3714 42.483 36.9216C44.0502 33.1091 37.2122 30.5515 35.4643 31.2676ZM28.8123 51.0048C24.743 51.0048 20.739 49.923 17.2334 47.8747C16.6708 47.545 15.9906 47.4579 15.3615 47.6288L7.74417 49.7195L10.3976 43.874C10.7589 43.0784 10.6664 42.1522 10.1559 41.4448C7.31754 37.5104 5.81672 32.8653 5.81672 28.0102C5.81672 15.3298 16.132 5.01445 28.8123 5.01445C41.4926 5.01445 51.8069 15.3298 51.8069 28.0102C51.8069 40.6895 41.4915 51.0048 28.8123 51.0048ZM28.8123 0.148438C13.4493 0.148438 0.950731 12.647 0.950731 28.0102C0.950731 33.4149 2.4853 38.6053 5.40097 43.1099L1.1684 52.4317C0.777684 53.2925 0.920257 54.3004 1.53191 55.0176C2.00207 55.5672 2.68229 55.8719 3.38427 55.8719C4.95366 55.8719 13.5113 53.1826 15.6891 52.5851C19.7149 54.739 24.2304 55.8719 28.8123 55.8719C44.1743 55.8719 56.6739 43.3722 56.6739 28.0102C56.6739 12.647 44.1743 0.148438 28.8123 0.148438Z" fill="white"/>
</svg>
