<svg width="30" height="30" viewBox="0 0 30 30" fill="none" xmlns="http://www.w3.org/2000/svg">
<path d="M14.825 2.9812C18.1467 2.9812 18.5611 2.99343 19.8644 3.05455C21.1664 3.11568 22.0527 3.31985 22.8327 3.62304C23.6396 3.93356 24.3193 4.35412 24.999 5.03263C25.6207 5.64377 26.1017 6.38304 26.4086 7.19897C26.7106 7.97773 26.916 8.8653 26.9771 10.1673C27.0346 11.4705 27.0505 11.885 27.0505 15.2066C27.0505 18.5283 27.0382 18.9427 26.9771 20.246C26.916 21.548 26.7106 22.4343 26.4086 23.2143C26.1026 24.0307 25.6215 24.7701 24.999 25.3806C24.3877 26.0021 23.6485 26.4831 22.8327 26.7902C22.0539 27.0922 21.1664 27.2976 19.8644 27.3587C18.5611 27.4162 18.1467 27.4321 14.825 27.4321C11.5034 27.4321 11.0889 27.4198 9.78572 27.3587C8.48371 27.2976 7.59736 27.0922 6.81738 26.7902C6.00112 26.4839 5.26173 26.0028 4.65104 25.3806C4.02926 24.7696 3.54822 24.0303 3.24144 23.2143C2.93825 22.4355 2.73409 21.548 2.67296 20.246C2.6155 18.9427 2.59961 18.5283 2.59961 15.2066C2.59961 11.885 2.61183 11.4705 2.67296 10.1673C2.73409 8.86408 2.93825 7.97896 3.24144 7.19897C3.54737 6.38253 4.02852 5.64307 4.65104 5.03263C5.26191 4.41064 6.00125 3.92956 6.81738 3.62304C7.59736 3.31985 8.48249 3.11568 9.78572 3.05455C11.0889 2.99709 11.5034 2.9812 14.825 2.9812ZM14.825 9.09392C13.2038 9.09392 11.6491 9.73793 10.5027 10.8843C9.35634 12.0306 8.71232 13.5854 8.71232 15.2066C8.71232 16.8278 9.35634 18.3826 10.5027 19.529C11.6491 20.6753 13.2038 21.3193 14.825 21.3193C16.4462 21.3193 18.001 20.6753 19.1474 19.529C20.2937 18.3826 20.9378 16.8278 20.9378 15.2066C20.9378 13.5854 20.2937 12.0306 19.1474 10.8843C18.001 9.73793 16.4462 9.09392 14.825 9.09392ZM22.7716 8.78828C22.7716 8.38298 22.6106 7.99428 22.324 7.70769C22.0374 7.42111 21.6487 7.2601 21.2434 7.2601C20.8381 7.2601 20.4494 7.42111 20.1628 7.70769C19.8762 7.99428 19.7152 8.38298 19.7152 8.78828C19.7152 9.19358 19.8762 9.58228 20.1628 9.86887C20.4494 10.1555 20.8381 10.3165 21.2434 10.3165C21.6487 10.3165 22.0374 10.1555 22.324 9.86887C22.6106 9.58228 22.7716 9.19358 22.7716 8.78828ZM14.825 11.539C15.7978 11.539 16.7306 11.9254 17.4184 12.6132C18.1063 13.301 18.4927 14.2339 18.4927 15.2066C18.4927 16.1793 18.1063 17.1122 17.4184 17.8C16.7306 18.4878 15.7978 18.8743 14.825 18.8743C13.8523 18.8743 12.9194 18.4878 12.2316 17.8C11.5438 17.1122 11.1574 16.1793 11.1574 15.2066C11.1574 14.2339 11.5438 13.301 12.2316 12.6132C12.9194 11.9254 13.8523 11.539 14.825 11.539Z" fill="#06834D"/>
</svg>
