<svg width="29" height="29" viewBox="0 0 29 29" fill="none" xmlns="http://www.w3.org/2000/svg">
<path d="M25.3273 25.8889V17.7218C25.3273 13.708 24.4633 10.6418 19.7804 10.6418C17.5226 10.6418 16.0174 11.8683 15.4042 13.039H15.3485V11.0042H10.9165V25.8889H15.5436V18.5023C15.5436 16.5511 15.9059 14.6836 18.3031 14.6836C20.6724 14.6836 20.7003 16.8856 20.7003 18.6138V25.861H25.3273V25.8889Z" fill="#06834D"/>
<path d="M3.39062 11.0042H8.0177V25.8889H3.39062V11.0042Z" fill="#06834D"/>
<path d="M5.7041 3.58984C4.22678 3.58984 3.0282 4.78842 3.0282 6.26575C3.0282 7.74307 4.22678 8.96952 5.7041 8.96952C7.18142 8.96952 8.38 7.74307 8.38 6.26575C8.38 4.78842 7.18142 3.58984 5.7041 3.58984Z" fill="#06834D"/>
</svg>
