<svg width="186" height="68" viewBox="0 0 186 68" fill="none" xmlns="http://www.w3.org/2000/svg">
<mask id="mask0_130_11403" style="mask-type:luminance" maskUnits="userSpaceOnUse" x="138" y="0" width="48" height="67">
<path d="M166.288 0.769578C159.632 0.238229 145.802 4.08313 139.787 28.8056C133.765 53.5355 146.222 68.4723 161.071 66.8045C175.919 65.1293 186.693 51.9415 185.675 32.407C184.664 12.8725 178.967 1.78062 166.288 0.769578Z" fill="white"/>
</mask>
<g mask="url(#mask0_130_11403)">
<path d="M164.982 -24.9122C167.034 -24.7425 168.569 -23.3772 170.569 -24.0783C182.243 -21.8865 190.686 -16.2926 200.361 -11.9754C204.686 -7.75408 210.981 -5.59916 213.947 0.016901C216.523 1.0427 216.833 4.43743 219.645 5.20494C216.279 -1.09746 211.239 -5.63606 206.198 -10.1894C201.084 -11.4145 198.701 -15.5324 193.003 -16.1597C190.937 -18.1302 188.723 -19.3995 185.631 -20.8164C184.029 -21.547 181.874 -22.4916 180.745 -22.868C179.845 -23.1706 178.723 -22.964 177.838 -23.2813C177.033 -23.5839 176.391 -24.4473 175.631 -24.6835C174.413 -25.0525 172.642 -24.7204 171.262 -25.0598C168.93 -25.6281 165.299 -26.5801 162.052 -26.0487C160.724 -25.8273 159.469 -24.9491 157.964 -24.7425C150.665 -23.7093 142.503 -23.6355 137.027 -20.6024C140.473 -20.3662 144.473 -21.9824 148.599 -22.5728C154.355 -23.4141 159.838 -25.3329 164.975 -24.9122H164.982Z" fill="white"/>
<path d="M138.326 -17.252C139.418 -17.5545 140.798 -17.3258 141.957 -17.5841C148.872 -19.1486 155.89 -20.8238 163.653 -20.2925C170.672 -19.8128 177.978 -19.37 183.321 -16.8977C186.501 -14.3812 190.494 -13.2595 194.103 -10.8684C198.457 -7.99026 201.733 -5.75416 205.431 -2.68414C207.615 -0.868696 209.969 0.703211 210.656 3.47804C212.095 3.95035 212.597 5.40418 213.158 6.79897C217.748 9.41882 218.759 15.795 222.176 19.6399C222.05 18.2008 221.209 17.5145 221.357 15.7876C219.489 12.1272 216.892 9.2417 215.298 5.29348C211.357 1.58141 208.604 -2.85388 204.375 -6.29289C198.08 -11.3997 190.177 -14.2115 183.04 -18.5951C179.897 -18.6246 177.653 -20.2187 174.266 -21.0378C171.055 -21.8201 167.484 -20.7795 164.111 -21.274C163.366 -21.3773 162.672 -21.8791 161.912 -21.9456C159.624 -22.1596 157.558 -21.2002 155.403 -21.547C153.329 -20.5212 150.06 -20.8238 147.211 -20.3736C145.831 -20.1596 144.495 -19.3552 143.123 -19.0748C140.407 -18.5139 138.887 -18.4106 136.865 -17.7095C135.691 -17.2962 133.529 -17.0158 133.78 -15.4587C135.573 -15.038 136.687 -16.7944 138.326 -17.2593V-17.252Z" fill="white"/>
<path d="M178.531 -14.5953C181.756 -13.6581 183.483 -12.3002 186.125 -10.9127C189.291 -9.2449 191.092 -8.24124 193.734 -6.26344C194.782 -5.48118 196.221 -4.92031 197.166 -4.16757C200.413 -1.56986 203.379 2.40788 206.095 5.04249C206.641 5.57384 207.579 5.6993 208.058 6.20851C208.501 6.68819 208.73 7.91325 209.328 8.59958C209.925 9.30067 210.649 9.75084 211.062 10.2527C211.91 11.3006 211.962 12.8504 212.597 14.0902C214.671 18.1048 217.896 21.721 219.423 26.0086C219.106 28.6433 221.039 30.8794 222.242 32.7169C222.154 29.7576 220.648 26.1415 219.128 23.8464C216.361 13.2784 209.217 5.16795 202.774 -2.36688C196.029 -7.51802 188.406 -11.7393 180.435 -15.6063C177.107 -15.3923 174.244 -17.4439 170.716 -17.7908C168.967 -17.9531 167.1 -17.5177 165.403 -17.6653C160.901 -18.0491 156.643 -18.5361 152.591 -17.3554C151.824 -17.2963 151.772 -17.9753 150.894 -17.7982C149.949 -16.4993 148.156 -17.2078 146.318 -16.9568C144.222 -16.6764 142.51 -15.5473 140.783 -15.3776C141.787 -12.9717 143.89 -15.1635 145.388 -15.4809C152.481 -17.0233 160.547 -17.0528 166.871 -16.979C169.956 -16.9421 174.819 -15.6875 178.531 -14.5953Z" fill="white"/>
<path d="M110.061 3.51481C114.991 0.430037 118.762 -3.78386 124.334 -6.26349C127.219 -8.54387 130.26 -10.6988 134.599 -11.5991C135.544 -12.433 136.857 -12.9127 137.935 -13.6138C138.828 -13.6433 139.721 -13.6581 140.592 -13.6729C140.717 -14.5437 140.289 -14.8315 140.075 -15.3555C126.068 -10.6766 114.681 -3.49605 106.268 6.50365C107.914 6.76933 109.109 4.68083 110.061 3.51481Z" fill="white"/>
<path d="M168.65 -13.6358C168.583 -13.0749 168.709 -12.7059 168.923 -12.4329C174.686 -11.8498 179.159 -10.1377 183.291 -8.18944C190.155 -4.94231 194.664 -0.684132 200.014 3.26409C201.424 6.12009 204.036 8.35619 205.763 11.1015C206.25 11.8616 206.449 13.0203 207.04 13.7361C207.652 14.4741 208.87 14.8947 209.497 15.6106C211.231 17.5884 212.589 20.806 213.556 23.2487C214.346 25.2634 214.316 27.6693 215.158 29.743C215.416 30.3703 216.161 30.8352 216.405 31.4108C217.704 34.3554 218.043 37.5656 219.77 40.274C219.991 40.8644 220.294 42.1338 219.829 42.6946C220.973 43.1374 220.287 45.5211 221.6 45.7942C221.799 44.2001 220.611 42.3847 221.224 40.4807C217.423 31.802 215.106 22.0237 210.7 14.8652C209.682 13.2416 208.863 11.3672 207.918 10.0978C205.239 6.51122 201.822 4.23823 199.461 0.622101C195.844 -1.44426 193.542 -4.89065 189.136 -6.14522C188.738 -6.71347 188.243 -7.18578 187.896 -7.79831C180.369 -11.1709 172.089 -14.8239 162.333 -14.4402C162.141 -14.3885 162.06 -14.2262 162.111 -13.9457C163.934 -13.835 167.026 -12.0934 168.642 -13.6284L168.65 -13.6358Z" fill="white"/>
<path d="M114.629 32.1782C115.574 30.3554 115.596 28.2152 117.906 27.9791C118.098 25.374 119.515 24.4294 120.932 22.8353C127.603 15.2193 134.385 8.821 143.462 4.63662C144.171 4.45213 143.809 3.23445 144.628 3.15327C145.396 3.09423 145.448 3.77318 146.333 3.59606C148.68 2.28983 152.089 1.99464 154.982 1.21237C158.842 1.69944 162.812 2.06843 166.62 2.62192C172.081 4.06099 175.823 7.33765 180.103 10.0313C180.399 11.7287 182.708 12.4076 183.587 14.0607C183.793 14.4518 183.579 15.1234 183.86 15.5071C184.221 15.9868 185.004 16.1271 185.336 16.6805C186.015 17.7875 186.745 19.7284 187.38 21.2265C188.767 24.4515 190.494 28.2079 191.505 31.5288C192.413 34.5103 192.251 37.6319 192.686 40.4437C192.841 41.4916 193.527 42.4288 193.483 43.3292C193.431 44.3476 192.642 44.7387 192.332 45.7645C192.214 46.1409 192.465 46.9379 192.361 47.4693C192.273 47.9416 191.756 48.2811 191.668 48.687C191.173 51.2551 191.49 54.2366 191.144 56.9229C190.834 59.3582 189.653 61.4246 189.86 63.7271C189.107 66.2436 186.531 69.9778 188.14 72.4722C189.026 72.5313 189.712 72.4058 190.31 72.1918C190.383 71.0405 190.192 70.1697 189.992 69.2841C191.52 67.2842 191.372 63.6681 192.708 61.491C192.841 60.5169 192.051 60.5316 192.177 59.5649C192.878 57.5723 193.608 54.1481 193.911 51.2994C194.147 49.0117 192.553 45.5358 195.195 44.9823C194.701 47.6833 195.365 50.1629 195.402 52.7164C195.424 54.1923 194.56 56.0004 194.317 57.8232C194.221 58.5095 194.428 59.3139 194.361 60.0003C193.874 64.9448 190.856 69.4465 192.029 73.594C191.586 74.1917 190.93 74.5902 190.376 75.0847C188.391 80.044 184.531 83.2247 182.472 88.1027C185.336 88.8334 184.738 84.2947 187.446 84.1029C188.074 80.9148 191.062 79.9923 191.38 76.509C192.9 75.7563 193.18 73.8301 194.184 72.5682C194.317 71.5128 193.734 71.2177 193.882 70.155C194.221 69.2399 194.811 68.3912 195.025 67.4761C195.328 66.192 194.966 64.4946 195.402 63.0998C196.236 60.4431 197.608 58.3546 197.653 56.0373C197.712 53.3805 196.472 50.8714 197.468 48.3032C194.701 41.6244 195.18 31.5362 191.365 25.957C192.162 24.0456 190.354 23.0125 189.808 21.6472C189.55 20.9904 189.749 20.1417 189.52 19.4775C189.225 18.6657 188.096 17.7285 187.513 16.6289C185.284 12.4002 182.893 10.5036 179.808 8.11253C175.616 4.83588 170.355 2.36363 164.635 0.976216C160.222 -0.0938627 156.052 0.334167 151.071 0.0980116C150.171 0.267748 149.986 1.10905 148.68 0.887656C148.518 0.385826 149.019 -0.80233 148.156 -0.558795C147.994 -0.558795 147.839 -0.544035 147.662 -0.558795C147.13 -0.0200655 147.89 0.26037 147.713 1.13119C145.248 2.24555 142.178 2.78428 140.304 4.45951C134.54 6.20853 131.455 10.511 126.481 13.0128C121.729 18.8724 115.205 23.0494 112.651 30.9975C108.511 36.4364 105.309 42.7388 101.213 48.2073C101.242 48.8493 101.257 49.4987 101.257 50.1334C100.777 50.9747 99.0504 51.2182 99.8696 52.5835C102.895 48.6205 106.349 45.0635 108.283 40.0452C110.002 37.4401 113.065 35.1302 114.615 32.1561L114.629 32.1782Z" fill="white"/>
<path d="M145.514 9.66979C145.093 9.65503 144.768 9.72883 144.554 9.92809C144.554 10.2602 144.68 10.4594 144.82 10.6439C145.447 10.6956 145.602 10.2897 145.514 9.66979Z" fill="white"/>
<path d="M155.986 42.5394C155.676 42.5394 155.646 42.2369 155.255 42.318C154.569 43.5652 153.602 44.5172 153.905 46.709C155.58 46.2515 155.772 44.3918 155.986 42.5468V42.5394Z" fill="white"/>
<path d="M173.225 65.5793C174.952 64.4649 175.594 62.3248 176.236 60.192C173.727 58.6422 172.096 64.31 173.225 65.5793Z" fill="white"/>
<path d="M133.049 103.807C139.603 100.759 146.053 97.6082 152.414 94.3905C153.248 93.0769 153.831 91.4903 156.215 91.6305C156.606 90.0438 158.392 89.7708 158.539 87.9553C161.122 87.2911 161.543 84.8189 163.477 82.509C164.015 81.8817 164.923 81.5939 165.381 81.0256C167.071 78.8781 167.75 75.7712 169.071 73.6679C169.764 72.5683 171.321 71.9263 171.904 70.7012C172.517 69.3728 172.273 67.7862 172.997 66.5537C172.465 66.2881 172.015 65.956 171.056 66.1183C169.174 69.085 167.698 72.1255 165.72 74.9594C163.927 77.5128 162.547 80.4648 160.584 82.8263C159.993 83.5348 159.041 83.9185 158.451 84.568C154.562 88.8557 150.643 93.3869 145.175 96.0141C141.145 97.9476 137.625 99.7926 133.463 101.615C128.415 103.829 122.157 104.412 115.928 106.154C117.33 108.073 119.138 105.77 121.256 106.508C125.028 105.453 129.005 104.612 133.042 103.807H133.049Z" fill="white"/>
<path d="M199.018 101.231C199.719 98.4419 203.94 99.0027 204.7 96.25C200.546 97.0987 197.926 99.4012 195.409 101.8C191.026 102.516 187.144 106.198 182.421 105.01C184.435 102.958 187.631 103.091 190.088 101.918C192.398 100.818 194.007 98.5968 196.524 98.1393C196.878 97.6079 196.752 96.6264 197.453 96.4198C197.793 95.9622 199.033 96.3534 199.372 95.8884C199.933 95.5563 199.712 94.4863 200.051 93.9401C203.438 90.1543 208.08 87.5861 211.165 83.505C212.08 83.2689 213.239 83.2836 212.811 81.7708C209.608 83.0549 207.888 86.1101 205.468 87.9994C203.911 89.217 201.896 89.8886 200.464 91.2613C199.343 92.3387 198.693 93.7187 197.409 94.7224C193.365 97.8736 188.31 100.589 183.085 102.087C181.683 102.493 181.033 104.279 179.771 105.069C177.469 105.475 176.701 107.349 173.764 107.143C170.104 109.453 165.13 111.578 160.333 112.065C159.41 112.523 156.665 114.095 156.237 112.176C161.632 110.855 166.451 108.988 171.594 107.453C172.362 107.069 172.509 106.11 173.247 105.711C177.38 105.172 179.447 102.648 181.823 100.434C191.276 98.095 196.339 91.5933 202.767 86.3832C202.848 83.4017 204.398 81.7855 206.007 80.2579C206.302 77.0034 208.449 75.5053 209.947 73.3873C210.907 69.4169 212.405 65.9631 214.043 62.6422C215.564 55.8232 213.475 49.0042 213.313 42.5911C212.907 41.7793 212.368 41.1004 211.564 40.6945C211.911 40.1484 212.154 39.5137 211.999 38.5101C210.161 35.9862 210.309 31.1007 209.342 28.1783C207.763 23.4625 205.608 19.0642 205.114 13.7654C202.228 9.7803 200.162 4.92436 195.653 2.62922C195.417 2.14953 195.136 1.69198 194.885 1.19753C185.542 -5.25984 174.782 -10.256 160.724 -11.7541C159.248 -10.9718 157.314 -11.7541 155.632 -12.1157C152.318 -11.0235 147.403 -11.4515 145.056 -9.43684C144.496 -9.4147 143.927 -9.4147 143.359 -9.39256C137.079 -6.87603 130.673 -3.56985 125.692 -0.256297C124.747 0.36361 123.721 0.902338 122.836 1.50011C121.057 2.71778 118.696 3.9945 117.862 5.97968C121.146 5.86898 123.611 2.93179 125.736 1.43368C127.441 0.223389 129.588 -0.647432 131.455 -1.85035C136.4 -5.03844 141.352 -8.04204 147.964 -9.2671C151.115 -9.85749 155.278 -11.3851 158.318 -10.9792C159.646 -10.7947 160.857 -10.684 162.2 -10.5881C162.79 -10.5438 163.292 -9.99033 163.912 -9.90177C165.631 -9.65823 167.233 -10.1896 168.738 -9.78369C171.078 -9.1564 173.299 -7.76161 174.856 -7.031C176 -6.4849 177.491 -6.63987 178.745 -6.1528C179.963 -5.68787 180.775 -4.56613 181.941 -4.05692C184.849 -2.78021 187.513 -2.3448 190.007 -0.62529C191.092 0.127456 191.778 1.47059 193.446 1.47059C195.07 4.81366 198.752 5.97968 199.933 9.77292C200.59 10.4002 201.638 10.629 202.154 11.4112C203.601 19.3151 207.638 26.4661 208.767 34.9456C208.863 35.6172 208.693 36.4585 208.833 37.13C209.342 39.7056 210.995 42.1631 211.431 44.7977C211.586 45.7054 211.313 46.7976 211.497 47.698C211.778 48.9968 212.671 49.9415 212.796 51.292C213.113 54.6719 211.763 57.7346 212.073 61.2253C210.804 64.7454 209.719 68.428 208.198 71.7194C207.63 72.1917 209.32 72.3467 208.973 73.3946C208.412 73.4094 207.844 73.4241 207.283 73.4315C204.25 80.2431 201.077 86.2356 195.601 90.6413C192.789 92.8996 189.461 94.3829 186.561 96.6707C186.059 97.3939 184.052 98.8846 183.66 96.9733C184.406 96.1172 185.609 95.6892 186.76 95.2095C187.181 92.6561 190.494 92.169 192.199 90.4864C193.025 89.682 193.062 88.4126 194.073 87.778C195.011 87.1876 196.383 87.2835 197.431 86.73C198.472 85.3352 200.826 82.8408 201.896 80.8114C202.523 79.6011 204.176 76.2802 201.534 75.9923C200.391 80.3317 198.332 83.8002 195.247 86.302C194.9 86.1027 194.479 85.9551 194.501 85.3426C197.099 82.0881 199.328 78.472 200.258 73.6013C202.007 71.5275 203.616 68.5608 204.42 65.5129C204.612 64.7676 204.42 63.823 204.597 63.0924C204.759 62.4134 205.32 62.0592 205.527 61.3876C206.413 58.325 206.464 52.5613 205.704 49.2846C205.394 47.9489 204.553 46.9379 204.405 45.4471C204.066 42.1114 204.036 38.9086 203.446 35.809C202.944 33.1597 201.726 30.6505 201.084 28.3628C200.656 23.8758 198.642 21.0124 197.904 16.8428C196.656 16.4148 196.9 14.9462 196.391 13.9721C195.033 11.4039 192.723 9.7434 190.907 7.57373C183.122 -1.80607 172.901 -8.63981 157.632 -8.30034C156.148 -9.67299 154.798 -8.55125 153.529 -8.2044C152.392 -7.89445 150.894 -7.62877 149.676 -7.38524C143.588 -6.1897 137.573 -3.56248 133.883 -0.462937C131.78 0.14959 130.334 0.76212 128.622 1.83958C126.201 3.35983 124.031 5.22693 121.485 6.60696C120.268 7.27115 118.821 7.52944 117.648 8.15673C115.212 9.4482 114.334 12.0238 111.958 12.8872C109.323 17.5439 105.478 21.0346 103.338 26.1636C104.002 26.2964 103.973 27.1525 104.807 27.1008C107.375 24.6433 108.054 21.1896 110.164 18.5033C110.703 17.817 111.869 17.3889 112.77 16.5107C114.799 14.5255 116.305 11.9721 118.43 10.5626C120.504 9.19729 122.29 7.78774 124.142 6.79884C126.991 5.30073 129.743 4.59965 131.537 2.27499C132.769 1.64033 134.105 1.08683 134.872 0.0167542C138.178 -1.48136 141.905 -2.58095 144.429 -4.81705C148.599 -5.28198 152.547 -7.59187 156.931 -7.77637C162.2 -7.99776 168.982 -5.77643 173.203 -4.78753C174.413 -2.45549 177.129 -2.21196 179.1 -1.0607C180.694 -0.138223 181.69 1.54438 183.314 2.94656C184.753 4.19375 186.598 5.02029 187.498 5.99443C188.649 7.24163 189.491 9.04231 190.752 10.5035C196.738 17.4922 200.118 29.6616 201.387 40.237C203.32 45.7571 202.966 51.6019 203.283 58.0962C202.302 63.3802 200.487 67.8745 199.284 72.9371C198.494 73.3651 198.332 74.3909 197.645 74.9223C197.719 78.4277 196.332 79.7339 194.915 81.9995C193.867 83.6305 193.461 85.6304 192.612 86.8924C190.708 89.682 187.085 90.9439 185.52 93.5859C185.026 94.0656 184.192 94.2132 183.609 94.6043C182.819 95.8958 182 97.1725 181.277 98.5304C177.83 99.6152 175.092 102.169 171.735 103.6C170.657 104.058 169.447 103.992 168.362 104.397C166.229 105.209 164.502 106.707 162.399 107.453C158.886 108.678 155.44 108.486 153.292 110.818C153.831 111.991 155.447 112.013 156.237 112.921C155.897 112.995 155.838 113.334 155.521 113.423C153.588 113.312 152.517 112.279 152.067 110.596C148.031 111.792 143.529 112.545 140.068 114.279C138.629 113.15 137.094 115.305 135.234 114.397C134.311 115.489 131.566 114.84 130.924 116.19C133.175 116.641 136.887 114.434 138.429 116.729C139.285 116.449 139.632 115.681 140.569 115.467C144.363 116.537 148.85 112.117 151.912 114.22C151.979 116.035 150.281 115.017 149.285 115.504C149.743 118.559 153.565 115.903 154.827 114.892C157.595 115.762 160.812 116.921 163.786 115.157C173.506 113.076 179.343 107.305 190.177 106.294C192.516 104.589 195.446 103.438 198.051 101.992C200.59 103.431 204.486 101.8 204.774 99.8957C202.759 100.006 200.951 102.604 199.011 101.246L199.018 101.231Z" fill="white"/>
<path d="M111.441 60.5465C113.722 59.7347 114.334 57.3289 115.928 55.8529C116.002 52.4729 118.533 51.4176 118.378 47.8089C119.116 47.9638 119.087 47.3808 119.825 47.5358C119.876 46.2222 119.131 46.2738 119.53 45.1152C121.456 42.9382 122.614 40.0231 125.168 38.4586C125.079 35.5288 126.555 34.1119 128.43 33.0565C128.865 30.6359 130.26 29.1378 131.928 27.8906C132.422 25.3815 134.326 24.2007 134.917 21.7727C141.064 17.1603 145.913 11.3155 155.174 9.66978C155.802 9.56647 155.89 8.9318 156.613 8.91704C170.679 8.69565 175.779 17.8909 180.753 27.1896C181.026 31.0492 183.653 33.2927 184.384 37.0269C185.262 41.4991 184.384 46.7462 185.188 50.5468C183.188 55.8012 181.432 61.2919 180.281 67.3507C179.808 67.919 179.447 68.6053 178.864 69.0776C178.908 69.668 178.945 70.2436 178.657 70.5314C170.893 84.8557 161.056 97.1875 144.879 103.512C143.758 104.811 141.75 105.254 140.348 106.294C138.134 107.261 133.426 107.069 133.168 109.121C142.769 108.523 151.123 103.261 158.303 98.8479C158.872 98.8258 159.432 98.811 160.001 98.7889C161.086 97.8664 161.469 96.265 163.063 95.8148C164.008 95.741 163.75 96.9218 164.79 96.7447C170.052 93.8887 173.594 89.3943 177.816 85.542C177.971 84.6638 178.664 84.2948 178.48 83.1067C183.277 78.236 185.808 71.1956 188.17 64.015C187.446 62.0225 189.306 60.2513 188.509 58.1849C188.9 57.6167 189.395 57.1444 189.432 56.2367C189.409 52.7312 190.546 49.7129 189.911 46.3107C192.133 44.2444 191.38 39.9715 190.627 35.6542C189.941 31.802 188.398 29.7946 187.269 27.2707C186.649 25.839 186.45 24.0384 185.712 22.71C185.291 21.9646 184.502 21.5661 184.221 20.8134C184.022 20.3115 184.199 19.6547 183.934 19.1234C183.483 18.2304 182.192 17.5293 181.697 16.5109C180.066 13.2195 176.635 9.86166 173.506 8.00932C170.672 6.33409 168.975 6.26029 165.705 5.29353C160.953 3.89874 155.838 3.81018 149.971 4.71052C141.426 6.00938 136.953 11.7214 130.422 16.0681C126.725 20.6436 121.692 23.9719 119.633 30.112C116.843 32.6506 115.057 36.1487 112.829 39.2261C110.644 44.3108 106.349 47.3661 104.209 52.4951C103.501 52.7165 104.364 53.2773 104.239 53.7054C102.593 53.8677 102.01 55.0411 100.903 55.7201C103.154 57.1813 103.641 53.6758 105.678 53.4323C106.718 50.6427 108.954 48.9896 110.106 46.3107C111.478 46.2812 111.707 45.1595 112.962 45.034C114.076 42.2149 117.183 40.6209 117.389 37.6616C118.068 37.6099 118.386 37.1966 119.065 37.1524C119.175 36.2003 118.607 35.979 118.777 34.9753C120.814 34.2963 121.677 32.5326 122.791 30.9976C122.755 29.3887 122.659 27.7357 124.4 27.8168C124.651 25.9276 125.684 24.7837 127.219 24.1195C128.23 20.0532 133.094 19.6473 134.26 15.7213C139.529 12.238 143.514 7.52963 151.455 6.59239C152.355 6.17173 152.776 5.77322 153.602 5.57396C161.359 3.64782 168.178 7.13849 172.325 9.71406C175.823 11.8985 177.284 13.0867 178.531 16.3338C179.373 16.6068 180.015 17.0939 180.509 17.736C184.28 26.5032 189.933 34.658 188.708 46.7978C188.494 48.8937 187.498 51.5578 188.162 54.3105C188.243 55.2625 187.136 55.078 187.24 56.0226C187.247 56.5909 187.269 57.1518 187.277 57.72C184.871 63.1442 184.443 70.4502 180.923 74.8044C178.886 79.2101 176.31 83.6823 173.248 87.3206C171.735 89.1139 169.727 90.184 168.03 91.564C167.196 92.2356 166.473 93.8222 165.167 93.3278C166.045 90.2873 170.48 88.6194 171.742 85.1804C172.015 84.9738 172.384 84.8483 172.938 84.9074C173.698 81.3798 177.734 80.9665 177.823 76.8117C178.192 76.2213 178.871 75.9113 179.247 75.321C181.454 69.6311 184.649 63.6534 184.834 56.8049C187.232 53.484 186.553 47.9712 186.686 43.2186C186.738 41.2629 187.254 39.3442 187.033 37.6468C186.576 34.0971 183.815 29.8684 182.413 26.6361C181.365 24.2155 180.76 22.555 179.609 20.6584C177.38 16.998 174.45 13.4409 170.672 11.2048C169.941 10.7694 168.679 10.7472 167.993 10.2971C167.454 9.9576 167.44 9.31555 166.989 9.11629C164.886 8.12739 160.539 7.65508 157.506 7.40417C154.982 7.21229 154.082 8.34879 152.466 8.73992C150.399 9.24913 148.828 8.99822 147.411 9.83214C146.673 10.2749 146.267 11.345 145.285 11.8173C143.927 12.4815 142.599 12.3413 141.684 12.8726C134.201 17.1825 129.802 24.8132 124.718 31.1747C124.142 31.4108 125.278 31.8831 124.991 32.6285C124.334 33.6174 122.71 34.4808 121.928 35.6026C121.655 36.0011 121.788 36.7538 121.485 37.3073C119.921 40.2371 116.467 42.9751 116.12 45.4178C116.017 46.1632 116.482 47.093 116.423 47.831C116.319 48.9896 115.463 50.7682 114.829 51.9711C112.26 56.8639 109.094 60.4506 106.917 64.9892C104.231 65.181 103.965 67.6828 102.172 68.7307C105.914 68.2732 107.987 64.1921 111.212 62.4652C111.087 61.6387 111.279 61.1074 111.412 60.5243L111.441 60.5465Z" fill="white"/>
<path d="M123.411 95.5711C127.743 93.8811 131.691 91.8074 136.341 90.42C136.562 89.5935 137.057 89.0547 137.758 88.6931C138.237 88.6857 138.717 88.6783 139.204 88.6636C139.16 88.0584 139.307 87.6525 139.654 87.4385C142.414 87.136 143.056 84.6711 144.643 83.4534C146.252 82.1988 148.178 81.173 148.894 79.2321C149.433 79.0476 150.134 78.996 150.577 78.7155C150.754 76.6049 151.964 75.4684 153.868 75.0035C153.779 74.1253 153.868 73.4316 154.06 72.8264C155.75 72.7895 155.654 71.0553 157.152 70.8117C157.58 70.059 156.901 69.7343 157.351 69.1144C160.355 65.5204 163.122 61.6976 164.296 56.362C165.071 55.9118 165.72 55.3509 166.192 54.6277C166.657 49.7865 169.727 45.4103 169.439 39.071C173.506 35.2777 170.266 27.3813 167.868 23.8759C163.786 21.2339 157.078 14.6215 150.783 18.0015C148.104 19.4406 146.717 22.0014 143.654 23.4921C142.038 26.9016 138.916 28.8868 138.097 33.0712C135.426 36.7316 132.459 40.1263 130.887 44.842C128.134 46.2368 127.655 49.7939 125.5 51.7496C125.64 54.7901 123.175 55.3583 122.991 58.0889C122.445 58.4948 121.95 58.9892 121.33 59.3361C118.747 65.0702 114.489 69.1955 110.054 73.1585C109.382 73.4906 108.526 73.7341 107.906 74.1843C106.652 75.0847 105.19 76.2359 104.607 77.6455C112.12 74.0146 118.651 69.4538 122.12 61.9854C123.515 61.4984 123.795 59.956 125.197 59.4984C125.16 57.1811 126.681 56.3398 128.002 55.3214C127.389 54.3104 128.466 54.0004 128.179 52.6499C128.747 52.6425 129.308 52.6278 129.876 52.6204C130.216 51.4691 130.769 51.1444 130.289 49.7053C130.924 49.1371 131.123 48.8493 132.208 49.174C132.695 47.1962 133.706 45.7276 135.249 44.7535C135.47 43.6834 134.4 43.9786 134.474 43.0782C135.212 42.2369 136.282 43.1078 136.872 42.0451C137.027 41.0635 136.075 41.2333 136.348 40.1263C138.902 40.451 137.868 37.3367 138.909 36.2002C139.654 36.001 139.389 36.8496 140.127 36.6504C140.673 33.7796 143.071 32.68 143.344 29.5584C144.075 29.2336 144.599 28.7023 145.241 28.3038C145.61 26.0529 147.042 24.8279 148.023 23.1674C151.248 21.8907 151.3 18.1491 155.897 18.614C156.931 18.7247 158.532 19.7653 159.558 20.2155C160.864 20.7985 162.414 21.2413 163.218 21.8169C165.447 23.4331 169.27 30.7244 168.369 34.7538C168.022 36.3257 167.882 38.3182 167.543 40.3329C167.085 43.0635 165.454 45.4546 165.786 48.1187C163.476 55.7421 159.646 61.9338 155.137 67.4834C155.277 68.2435 154.731 68.3542 154.945 69.1808C145.049 79.3502 136.245 90.5528 119.758 94.4568C119.094 94.6855 119.22 95.6671 118.334 95.704C114.076 95.5785 113.094 97.7925 109.943 98.3312C113.95 98.7961 118.622 96.3534 121.95 95.1431C122.71 95.0029 122.518 95.8589 123.411 95.5859V95.5711Z" fill="white"/>
<path d="M174.974 57.8011C175.513 58.0594 175.971 58.3989 176.923 58.2439C177.594 57.7716 177.336 56.4285 177.336 55.3289C177.897 55.233 178.332 55.0042 178.768 54.8049C178.989 53.6758 177.779 54.0374 178 52.8936C178.162 52.1925 179.292 52.3917 179.174 51.425C179.388 49.9268 179.174 49.6021 178.864 48.2885C179.048 46.2591 179.697 43.8385 179.904 41.4843C180.066 39.6172 178.701 36.4512 181.225 35.8977C181.033 41.2408 180.745 47.4915 181.151 53.0707C183.646 53.0559 183.269 49.1815 183.424 47.2111C183.793 42.606 183.203 38.6209 182.398 34.6579C181.454 33.979 181.107 35.4328 180.221 34.717C180.317 33.8609 180.539 33.1377 180.391 32.0528C179.675 30.6654 179.159 29.0714 178.834 27.2559C176.871 25.5069 176.443 22.5992 175.041 20.5698C171.86 15.9869 168.347 13.987 162.746 12.1641C161.669 11.8173 160.384 11.1752 159.565 11.0276C156.23 10.452 149.61 13.3154 147.086 14.9685C146.348 15.4408 145.957 16.3928 145.211 16.9463C144.326 17.5957 143.064 17.7359 142.333 18.223C141.049 19.1086 140.001 20.9904 138.304 21.4701C132.636 28.1932 129.419 37.2409 123.367 43.6023C123.566 46.5469 120.924 46.783 121.338 49.9342C118.356 52.7533 118.312 58.3842 114.829 60.7309C114.77 61.2992 114.474 61.6534 114.622 62.4209C113.604 63.0261 113.131 64.1552 112.526 65.1441C111.139 66.6791 107.39 68.1477 108.534 70.5535C109.796 70.7233 109.582 69.4908 110.194 69.0702C116.43 65.9485 118.489 58.8638 122.887 54.0005C122.836 53.1518 121.972 53.1518 122.113 52.0965C124.954 51.0929 124.43 46.9011 127.042 45.6834C127.205 44.8495 126.658 44.7757 126.754 44.0008C127.212 43.499 128.312 43.5876 128.917 43.2259C129.92 39.4991 133.787 37.6541 133.765 33.6764C134.334 33.6616 134.466 33.2484 135.204 33.396C135.197 32.8351 135.175 32.2742 135.167 31.7134C137.928 30.9532 137.226 26.9017 139.861 26.0309C139.898 23.5365 141.514 22.5697 142.643 21.1307C147.16 20.1565 148.968 13.7803 154.576 14.5552C156.532 14.8209 159.396 15.9574 161.403 16.8061C167.093 19.1898 170.517 23.1823 172.598 29.588C173.1 31.123 172.864 32.8572 173.196 34.407C173.491 35.7649 174.34 36.9752 174.502 38.2519C175.447 45.6982 171.462 51.8456 171.366 58.6425C169.499 59.9192 168.591 62.1331 168.133 64.753C168.65 64.9596 168.864 65.4762 169.602 65.4541C170.325 63.277 173.247 60.1996 173.535 58.3399C173.639 57.7273 173.292 57.0779 173.491 56.1628C173.771 54.709 174.782 53.3068 175.07 51.7792C176.591 43.6761 177.388 34.4734 174.214 26.4073C173.1 25.0051 171.631 23.994 171.196 21.8908C169.558 20.7174 168.318 19.1233 166.982 17.6326C164.34 17.1603 161.986 15.2415 159.403 14.4224C158.097 14.0165 156.082 14.5257 155.492 12.8283C156.968 10.8136 160.739 12.6881 162.06 13.8836C167.565 14.1567 171.712 19.0053 174.384 23.507C178.03 29.6544 178.472 39.4548 177.365 47.1225C177.1 49.056 175.919 51.2995 176.797 53.4249C175.779 54.5097 175.188 55.9857 174.967 57.8307L174.974 57.8011Z" fill="white"/>
<path d="M151.588 30.5547C148.835 30.7982 147.949 34.4217 148.835 36.6652C147.47 37.6541 146.318 38.8423 146.274 41.0857C142.429 47.6538 137.846 53.5134 133.677 59.7715C130.208 62.2807 128.193 66.1846 124.452 68.4576C123.839 70.155 122.526 71.1808 121.655 72.642C118.902 73.9556 117.227 76.3024 115.515 78.5901C119.662 77.8153 122.061 73.3504 125.98 71.5645C126.341 70.4944 127.301 69.9926 127.854 69.107C129.765 68.7159 130.031 66.7602 130.909 65.6459C132.614 63.4836 135.662 62.4947 136.57 59.7051C137.308 59.6165 137.64 59.159 138.245 58.9302C138.688 56.9746 139.507 55.4026 141.278 54.03C142.06 53.4248 143.049 53.3879 143.647 52.5171C144.038 52.0005 144.193 50.3106 144.783 48.8789C145.241 47.7128 146.267 46.8346 146.65 45.9269C146.776 45.6022 146.444 45.0192 146.621 44.7092C147.034 44.0155 147.89 43.6465 148.274 42.9897C148.518 42.5617 148.363 41.7499 148.709 41.0415C149.108 40.2223 149.949 39.809 150.126 39.3072C150.392 38.5028 150.075 37.4917 150.296 36.4069C150.687 34.4365 152.34 32.7982 151.61 30.5694L151.588 30.5547Z" fill="white"/>
<path d="M121.367 90.789C122.223 90.789 122.267 91.6598 123.315 91.4679C128.186 90.5897 130.444 87.2319 134.791 85.8593C137.042 83.1435 139.676 80.7745 143.337 79.365C145.676 74.4279 151.514 72.8338 152.709 66.8119C155.418 65.0112 157.477 62.0592 159.049 59.1516C159.358 58.6055 160.104 57.7346 160.215 57.4321C160.347 57.0852 159.964 56.3325 160.178 55.9782C160.665 55.2181 161.683 55.0484 162.074 54.2366C162.333 53.7052 162.052 52.9082 162.251 52.0522C162.694 50.2662 164.141 48.1925 164.547 46.4361C165.078 44.1041 165.019 41.9196 165.115 39.8975C165.262 36.7832 167.048 33.6247 166.325 30.4292C164.635 27.4772 163.44 22.5623 159.609 22.6139C157.196 22.6508 155.093 25.219 153.669 27.1083C152.488 31.4771 153.041 37.6245 151.61 41.9049C151.123 43.4251 149.388 44.2 150.016 46.0597C146.695 48.8641 145.551 53.7569 142.053 56.4136C141.949 57.1812 141.359 57.4911 141.366 58.3619C138.997 59.5796 138.016 62.1773 136.186 64.0592C134.776 65.4909 132.835 66.3617 131.433 67.8008C129.706 69.5719 128.37 71.7859 126.496 73.4832C123.47 76.2286 119.935 78.9886 116.518 80.9812C115.795 81.0033 115.072 81.0107 114.349 81.0328C111.854 83.0697 109.08 84.8335 106.01 86.3168C111.781 85.9847 115.965 82.1177 121.345 80.6269C125.094 76.9592 129.404 73.8153 132.946 69.9409C133.706 70.0442 133.773 69.476 134.629 69.6605C134.939 69.0258 135.071 68.1919 135.293 67.4613C137.167 66.7233 138.503 65.4909 139.064 63.4983C141.809 63.0555 142.053 60.2143 143.285 58.3176C144.887 57.7937 145.669 56.4948 146.112 54.8713C147.337 54.1554 148.466 53.3362 148.687 51.661C150.798 50.7533 153.071 48.5836 151.691 45.7793C153.477 42.8421 154.119 38.8127 155.801 35.7722C155.617 32.466 155.071 25.219 158.429 24.3408C160.539 23.7799 161.86 25.1747 162.347 26.4219C164.133 30.9974 161.617 41.4473 161.838 45.5431C160.465 50.3031 158.93 54.1038 156.798 57.5059C156.451 58.0815 156.436 58.79 156.126 59.218C154.761 61.122 152.739 62.7751 151.418 64.6569C150.953 65.3137 150.938 66.2658 150.503 66.8561C150.134 67.3506 149.241 67.6089 148.842 68.1033C148.2 68.8782 148.053 70.059 147.462 70.797C145.647 73.0331 143.197 74.6345 141.809 76.9739C135.005 80.8779 131.131 87.5788 122.769 90.0067C121.611 90.2355 121.876 88.9736 120.577 89.3426C118.666 89.8813 116.976 91.5565 114.843 92.383C113.087 93.0472 110.172 92.4273 109.581 94.6856C113.913 93.7705 118.393 93.0177 121.345 90.7816L121.367 90.789Z" fill="white"/>
<path d="M203.069 19.6251C202.575 18.9979 202.147 18.2968 201.815 17.485C198.966 8.25279 192.723 2.57031 184.915 -1.45909C184.863 -1.74691 184.642 -1.59931 184.428 -1.44433C184.251 -1.38529 184.155 -1.23032 184.207 -0.957262C188.443 1.50023 191.446 4.78427 194.59 8.23066C198.184 12.1936 199.38 16.0312 201.195 21.8539C203.077 27.8389 205.077 34.8572 205.8 41.809C206.922 43.6982 206.841 45.6465 207.158 48.3106C208.479 58.9671 205.682 68.2953 202.486 75.0257C205.999 75.4464 206.117 70.797 207.158 68.1403C208.634 64.3913 210.811 60.4726 210.737 56.1997C210.708 54.0817 209.453 51.9563 210.59 49.9121C208.095 40.8053 205.711 29.9053 203.077 19.6251H203.069Z" fill="white"/>
<path d="M139.529 41.9786C139.167 42.9011 138.341 43.366 137.64 43.9564C135.463 48.495 132.695 52.458 129.47 56.0077C128.378 60.2437 124.201 61.5352 122.681 65.3654C118.57 70.5755 114.29 75.616 108.755 79.483C107.419 80.0217 106.047 80.5236 105.427 81.7339C108.342 81.7339 110.844 79.3575 113.316 78.162C113.899 76.1252 115.759 75.4684 117.102 74.4426C120.474 71.8744 122.009 67.4465 125.817 65.2768C126.629 63.1366 127.935 61.4688 130.319 60.8194C133.035 55.8749 136.592 51.6979 140.149 47.5283C139.876 46.8419 139.869 46.5172 140.112 45.8235C140.643 45.6316 141.411 45.6538 141.544 45.0708C141.167 45.0265 141.3 44.4878 141.263 44.104C143.241 43.1446 143.241 40.3108 144.776 38.9455C144.466 36.857 145.684 36.8865 146.4 35.5138C146.326 35.6393 145.994 34.8423 146.119 34.5545C146.311 34.1043 147.197 33.2482 147.536 32.5841C148.016 31.6099 148.237 30.407 148.437 30.1487C148.887 29.5435 149.861 29.4624 150.348 28.8941C152.031 26.8942 152.636 23.6544 155.027 22.4958C155.72 22.4515 156.613 22.5917 156.96 22.208C156.067 19.0199 152.658 22.0678 151.411 22.8205C150.724 23.743 150.51 25.123 149.049 25.3001C149.056 25.706 149.071 26.1045 149.086 26.503C144.835 29.3 144.001 35.3589 140.924 39.2776C140.702 40.6428 141.795 40.9011 141.234 41.9343C140.666 41.9565 140.105 41.9638 139.544 41.9786H139.529Z" fill="white"/>
<path d="M107.176 34.2962C107.338 31.5435 109.146 30.348 110.43 28.658C110.755 26.4957 112.6 25.6618 113.463 24.2227C114.002 23.3297 114.031 22.1342 114.6 21.3003C115.876 19.411 119.684 15.4702 121.441 14.3632C121.677 14.2082 122.437 14.2673 122.651 14.0902C123.101 13.699 123.168 12.7692 123.574 12.3707C123.95 12.0017 124.924 11.4925 125.478 11.1161C127.19 9.97221 128.097 9.02759 129.514 8.11986C130.385 7.57376 131.5 7.49995 132.629 6.84315C133.839 6.1273 134.732 4.82107 135.95 4.10522C137.352 3.2713 139.012 2.66615 140.488 1.81009C144.104 -0.263649 147.61 -2.39643 152.466 -2.83184C153.455 -2.72114 153.462 -1.5625 154.672 -1.6732C155.779 -1.48133 155.824 -2.31525 156.842 -2.21193C171.122 -1.34848 181.262 3.86169 187.904 12.747C194.819 24.4515 199.07 41.189 198.937 58.6718C198.28 59.8895 197.83 61.3655 197.594 62.8119C196.944 66.583 195.904 70.1992 195.416 73.2766C197.018 74.0441 198.11 72.3762 197.298 70.8117C201.527 64.0739 203.165 50.9009 199.498 41.986C199.793 41.558 200.302 41.3292 200.191 40.5174C199.741 38.8274 199.527 37.4031 199.114 35.9419C197.667 30.8719 196.686 25.4035 194.893 21.2929C194.081 19.4406 193.52 17.4554 192.819 16.0237C190.103 10.4962 184.347 7.21952 180.893 3.00563C178.303 2.01673 175.491 1.24922 173.565 -0.433386C169.277 -0.868798 165.395 -2.4776 161.167 -3.03109C158.584 -3.37056 155.765 -2.59568 153.174 -3.31891C154.008 -4.84653 156.687 -4.65466 158.702 -4.66942C162.074 -4.6768 165.159 -3.58458 167.425 -3.9093C168.797 -3.20821 170.259 -2.5883 172.295 -2.57354C170.074 -4.06427 166.303 -4.85392 163.277 -5.25981C160.347 -5.65094 156.51 -6.13801 153.846 -5.52548C153.344 -5.40002 152.658 -4.66942 151.942 -4.50706C148.311 -3.71004 146.252 -2.57354 144.038 -1.4149C140.968 0.186525 137.772 1.17542 134.71 2.92445C130.407 5.38932 126.489 8.57741 122.319 10.4814C120.459 13.4555 117.175 15.0422 114.998 17.6768C110.164 23.4995 106.858 30.4218 102.15 36.3699C102.342 37.5876 101.434 37.7352 101.737 39.0341C99.5153 39.6318 100.467 42.4214 99.4268 43.6834C100.977 43.7572 101.272 42.6059 101.301 41.2259C103.655 39.3071 104.748 36.1781 107.176 34.311V34.2962Z" fill="white"/>
<path d="M159.093 71.0035C162.281 73.1806 162.606 68.3542 164.052 66.2878C165.034 64.893 166.333 64.3248 167.122 63.3137C167.107 62.6717 167.093 62.0296 167.085 61.3802C170.524 54.9745 173.838 46.2146 172.775 37.0488C172.539 37.0636 172.295 37.071 172.052 37.071C170.414 39.8827 170.856 44.8272 169.668 48.7385C169.056 50.7975 167.617 52.1997 168.111 54.3324C166.502 57.218 164.775 59.9854 163.735 63.3875C161.735 65.4982 159.978 67.8523 159.078 71.0035H159.093Z" fill="white"/>
<path d="M123.131 83.9628C124.85 82.6565 125.943 81.5717 127.397 80.2359C129.603 78.1991 132.127 77.4316 133.308 75.011C139.345 71.4687 143.02 65.6755 147.721 60.8712C147.861 60.2882 148.045 59.7642 147.92 58.9377C151.846 57.3215 152.34 52.4434 155.433 50.0524C155.219 55.1961 150.673 58.244 148.724 62.5391C146.813 63.2328 146.503 65.1884 145.44 66.4947C145.13 66.8637 144.4 66.871 144.009 67.2548C142.673 68.6274 141.75 70.8931 140.503 72.1771C139.426 73.2915 137.787 73.9335 136.703 74.9298C133.345 78.0441 129.913 80.5533 126.762 83.8816C124.917 85.2542 122.518 86.1251 121.803 88.5899C128.695 86.4203 132.223 81.0477 137.736 77.5644C138.208 76.8265 138.584 76.0073 139.138 75.3505C141.426 73.6679 144.392 72.0517 146.009 69.6311C146.481 68.9153 146.444 67.9116 146.924 67.181C147.639 66.0666 149.064 65.3213 150.001 64.1995C150.628 63.4394 151.189 62.6055 151.868 61.7347C152.547 60.8638 152.85 59.6683 153.499 58.7901C155.772 55.661 158.658 53.3143 158.318 48.0377C159.174 47.2111 159.329 45.7056 159.92 44.6134C160.798 41.012 160.495 36.7834 160.584 32.2595C160.635 29.6544 161.388 26.6877 159.455 25.5217C159.292 25.5217 159.137 25.5291 158.968 25.5217C157.735 30.54 157.27 38.2298 157.72 43.9418C156.842 45.189 155.949 46.4215 156.126 48.0893C153.182 49.152 152.289 50.9896 150.466 53.3069C148.975 55.174 147.558 56.4285 146.953 58.4728C142.784 62.5686 139.042 67.5721 134.444 71.3506C132.902 72.6273 131.669 74.3025 130.193 75.5645C129.824 75.8966 129.175 75.7416 128.762 76.0885C128.164 76.5682 127.773 77.5128 127.116 78.0589C126.385 78.6714 125.633 79.0035 124.983 79.5644C121.662 82.4056 118.821 85.5347 114.77 87.3058C112.954 88.1102 110.039 88.3316 109.773 90.3316C115.131 89.3279 119.714 86.5826 123.153 83.9554L123.131 83.9628Z" fill="white"/>
<path d="M145.758 99.1431C145.418 99.8441 144.606 100.095 144.097 100.634C142.356 100.863 140.902 101.372 140.274 102.663C141.359 104.678 143.795 102.228 145.079 101.586C158.79 96.9143 166.429 86.494 173.971 75.9629C173.986 75.2619 173.794 74.3836 174.163 74.022C174.864 73.284 175.572 72.5387 176.281 71.7933C177.941 66.2068 181.115 60.8195 181.432 54.7385C180.554 54.6204 180.273 55.0484 179.764 55.2698C178.458 59.6166 176.517 63.3434 175.218 67.7049C174.738 68.2067 174.185 68.6126 173.808 69.203C167.661 82.2284 159.396 93.2392 145.758 99.1504V99.1431Z" fill="white"/>
<path d="M167.196 65.9706C159.661 74.295 155.034 85.387 144.577 90.944C142.532 93.1653 137.175 96.6265 134.112 97.7261C131.64 98.6117 129.323 99.8072 126.931 100.56C125.847 100.899 124.275 100.316 123.817 101.844C124.991 102.427 126.046 101.667 126.954 101.291C135.212 100.412 139.787 96.0435 146.355 93.5565C146.599 92.9292 146.938 92.3831 147.521 92.0805C150.85 90.6045 152.444 87.4828 155.595 85.8371C155.927 85.5198 155.713 84.6933 156.045 84.3685C157.181 84.2726 157.447 83.3427 158.436 83.1066C158.281 81.3723 160.296 81.7265 159.801 79.6823C160.48 79.6233 160.798 79.21 161.477 79.1584C162.126 75.8374 164.133 73.8154 166.384 72.022C166.443 69.7195 167.683 68.5314 168.436 66.893C168.251 66.3469 167.69 66.192 167.203 65.9558L167.196 65.9706Z" fill="white"/>
</g>
<path d="M151.817 48.0743C152.68 47.9858 153.307 47.6685 153.455 47.1445C153.477 47.0707 153.484 46.9895 153.492 46.9157V46.8567L153.661 46.9083C157.647 48.1186 163.491 46.8788 168.82 43.307C176.273 38.3108 179.889 30.6579 176.908 26.2005L174.428 22.8353C171.012 17.7432 162.038 17.7727 154.385 22.9091C146.783 28.0012 143.337 36.2075 146.628 41.3144C146.651 41.3513 147.204 42.4288 147.226 42.4657L148.259 44.1483C147.248 44.1852 146.503 44.5246 146.333 45.0929C146.208 45.5283 146.444 46.0301 146.931 46.4951L133.256 60.4356L132.703 61.2252C131.906 62.4208 133.05 64.5757 135.249 66.0369C137.448 67.4981 139.876 67.7121 140.673 66.5166L151.817 48.0596V48.0743Z" fill="#707173"/>
<path d="M167.101 41.8596C174.445 36.9379 177.635 28.8256 174.227 23.7403C170.819 18.6549 162.103 18.5222 154.759 23.4439C147.415 28.3656 144.225 36.478 147.633 41.5633C151.041 46.6487 159.758 46.7813 167.101 41.8596Z" fill="white"/>
<path d="M150.968 48.5762L150.215 48.4802L140.651 63.1735L141.071 64.4355L150.968 48.5762Z" fill="white"/>
<path d="M156.731 43.3218L156.289 44.938C156.289 44.938 162.879 43.7498 165.698 41.248C165.698 41.248 159.824 43.3587 156.731 43.3218Z" fill="#6B6C6E"/>
<path d="M164.897 38.2638C171.543 33.8095 174.806 27.0285 172.186 23.118C169.565 19.2075 162.052 19.6483 155.406 24.1026C148.76 28.5568 145.497 35.3378 148.118 39.2483C150.739 43.1588 158.251 42.718 164.897 38.2638Z" fill="#6B6C6E"/>
<path d="M164.363 36.8945C170.176 32.9984 173.168 27.2738 171.047 24.1081C168.925 20.9425 162.493 21.5346 156.679 25.4307C150.866 29.3267 147.873 35.0514 149.995 38.217C152.117 41.3827 158.549 40.7906 164.363 36.8945Z" fill="white"/>
<path d="M140.212 65.886C140.918 64.8237 139.945 62.9344 138.037 61.6661C136.13 60.3979 134.011 60.231 133.305 61.2933C132.598 62.3556 133.572 64.2449 135.479 65.5132C137.387 66.7814 139.506 66.9484 140.212 65.886Z" fill="white"/>
<path d="M134.422 60.1405C135.404 59.8011 136.953 60.1258 138.385 61.0778L140.953 60.4431L140.444 57.4248L142.311 57.4838L142.518 55.1813L144.193 55.3953L144.267 52.7238L146.104 53.0485L146.429 50.4951L147.935 50.5984L148.466 47.8088L147.049 47.0044L134.422 60.1405Z" fill="white"/>
<path d="M152.918 47.0268C153.141 46.2513 151.966 45.2323 150.294 44.7509C148.622 44.2694 147.085 44.5078 146.862 45.2833C146.638 46.0588 147.813 47.0778 149.485 47.5593C151.158 48.0407 152.695 47.8023 152.918 47.0268Z" fill="white"/>
<mask id="mask1_130_11403" style="mask-type:luminance" maskUnits="userSpaceOnUse" x="149" y="22" width="23" height="19">
<path d="M164.363 36.8945C170.176 32.9984 173.168 27.2738 171.047 24.1081C168.925 20.9425 162.493 21.5346 156.679 25.4307C150.866 29.3267 147.873 35.0514 149.995 38.217C152.117 41.3827 158.549 40.7906 164.363 36.8945Z" fill="white"/>
</mask>
<g mask="url(#mask1_130_11403)">
<path d="M148.946 36.9162C148.82 37.0343 148.665 37.1376 148.496 37.2188V37.5213C148.599 37.4844 148.702 37.4254 148.828 37.3516C148.946 37.2852 149.042 37.204 149.116 37.1376L149.152 39.108H149.455L149.418 36.5693H149.211C149.16 36.6874 149.071 36.7981 148.946 36.9162Z" fill="#707173"/>
<path d="M150.82 36.8791C150.687 36.9972 150.54 37.1005 150.37 37.1817V37.4768C150.473 37.4473 150.577 37.3883 150.695 37.3145C150.82 37.2407 150.916 37.1669 150.99 37.0931L151.027 39.0635H151.337L151.293 36.5322H151.093C151.042 36.6429 150.953 36.7536 150.82 36.8717V36.8791Z" fill="#707173"/>
<path d="M153.123 39.0783C153.307 39.0783 153.462 39.0193 153.581 38.916C153.699 38.82 153.795 38.6724 153.846 38.4879C153.905 38.3034 153.927 38.0673 153.927 37.7647C153.927 37.5212 153.905 37.3219 153.854 37.1743C153.817 37.0341 153.765 36.9013 153.699 36.8053C153.625 36.702 153.544 36.6208 153.433 36.5692C153.33 36.5175 153.212 36.4954 153.079 36.4954C152.894 36.4954 152.739 36.547 152.621 36.6577C152.503 36.7537 152.407 36.8939 152.355 37.0784C152.304 37.2629 152.274 37.5064 152.282 37.8016C152.282 38.2739 152.378 38.6208 152.547 38.82C152.695 38.9898 152.879 39.0783 153.123 39.0783ZM152.739 36.9455C152.828 36.8275 152.931 36.761 153.079 36.761C153.226 36.761 153.344 36.8201 153.448 36.9603C153.551 37.1005 153.595 37.3736 153.61 37.7868C153.625 38.1927 153.573 38.4732 153.477 38.6208C153.389 38.7536 153.263 38.8274 153.123 38.8274C152.975 38.8274 152.857 38.761 152.761 38.6208C152.665 38.4953 152.606 38.2075 152.599 37.8016C152.599 37.3883 152.643 37.1005 152.747 36.9455H152.739Z" fill="#707173"/>
<path d="M155.263 39.034C155.447 39.034 155.602 38.9824 155.72 38.879C155.831 38.7683 155.927 38.6355 155.979 38.4584C156.045 38.2739 156.067 38.0303 156.067 37.7352C156.06 37.4842 156.038 37.285 155.993 37.1448C155.942 36.9972 155.897 36.8717 155.831 36.7758C155.765 36.6725 155.676 36.5987 155.573 36.547C155.477 36.4953 155.351 36.4658 155.219 36.4658C155.034 36.4658 154.886 36.5249 154.761 36.6208C154.643 36.7241 154.554 36.8643 154.503 37.0488C154.444 37.2259 154.414 37.4695 154.422 37.7721C154.422 38.2444 154.525 38.5912 154.687 38.7905C154.827 38.9676 155.027 39.0414 155.263 39.0414V39.034ZM154.872 36.9086C154.96 36.7905 155.071 36.7241 155.211 36.7241C155.359 36.7241 155.477 36.7905 155.58 36.9234C155.676 37.0562 155.735 37.3366 155.743 37.7499C155.743 38.1632 155.706 38.4362 155.602 38.5765C155.514 38.7167 155.396 38.7905 155.255 38.7831C155.115 38.7905 154.99 38.7314 154.894 38.5912C154.798 38.4584 154.739 38.1779 154.731 37.7647C154.731 37.3588 154.776 37.0636 154.879 36.916L154.872 36.9086Z" fill="#707173"/>
<path d="M157.735 38.9529L157.684 36.4216H157.484C157.433 36.5323 157.344 36.6504 157.219 36.7685C157.086 36.8866 156.931 36.9899 156.769 37.0711V37.3663C156.872 37.3294 156.975 37.2777 157.101 37.2039C157.226 37.1301 157.315 37.0563 157.396 36.9899L157.425 38.9603H157.735V38.9529Z" fill="#707173"/>
<path d="M159.529 38.9602C159.713 38.9602 159.868 38.9011 159.986 38.8052C160.104 38.7093 160.2 38.5617 160.252 38.3772C160.311 38.2001 160.333 37.9565 160.326 37.6613C160.326 37.4104 160.296 37.2112 160.259 37.0636C160.215 36.9233 160.163 36.7905 160.097 36.6946C160.023 36.5913 159.942 36.5174 159.846 36.4658C159.735 36.4141 159.624 36.3846 159.484 36.392C159.307 36.3994 159.145 36.451 159.034 36.547C158.916 36.6429 158.827 36.7831 158.768 36.975C158.709 37.1521 158.687 37.3957 158.687 37.6982C158.687 38.1705 158.783 38.51 158.96 38.7166C159.093 38.8864 159.285 38.9676 159.529 38.9676V38.9602ZM159.145 36.8274C159.226 36.7093 159.337 36.6429 159.484 36.6429C159.624 36.6429 159.75 36.7019 159.853 36.8422C159.949 36.9676 160.008 37.2481 160.016 37.6613C160.023 38.0672 159.971 38.3403 159.875 38.4879C159.787 38.6281 159.661 38.7019 159.521 38.7019C159.381 38.7019 159.263 38.6355 159.16 38.5026C159.056 38.3624 159.005 38.0894 158.997 37.6761C158.982 37.2628 159.034 36.9824 159.137 36.82L159.145 36.8274Z" fill="#707173"/>
<path d="M162.001 38.8716L161.956 36.3403H161.757C161.713 36.4584 161.617 36.5691 161.491 36.6872C161.366 36.8053 161.218 36.9012 161.041 36.9898V37.2923C161.137 37.2554 161.255 37.1964 161.366 37.1226C161.484 37.0488 161.58 36.975 161.654 36.9012L161.698 38.879H162.001V38.8716Z" fill="#707173"/>
<path d="M163.801 38.8864C163.986 38.8864 164.134 38.8273 164.252 38.7314C164.377 38.6281 164.458 38.4879 164.51 38.3034C164.576 38.1189 164.598 37.8827 164.591 37.5801C164.584 37.3366 164.569 37.1373 164.532 36.9897C164.488 36.8421 164.436 36.7241 164.362 36.6207C164.303 36.5174 164.207 36.4362 164.104 36.3846C164.008 36.3329 163.883 36.3108 163.742 36.3108C163.565 36.3108 163.41 36.3698 163.292 36.4658C163.174 36.5691 163.086 36.7093 163.034 36.8938C162.968 37.0709 162.945 37.3145 162.953 37.6096C162.96 38.0893 163.049 38.4214 163.226 38.6354C163.366 38.8052 163.558 38.8864 163.801 38.8864ZM163.41 36.7536C163.499 36.6355 163.61 36.5691 163.75 36.5691C163.897 36.5691 164.023 36.6355 164.119 36.7683C164.215 36.9012 164.274 37.1816 164.274 37.5949C164.281 38.0082 164.237 38.2812 164.141 38.4214C164.045 38.5616 163.934 38.6281 163.779 38.6281C163.646 38.6354 163.521 38.569 163.418 38.4288C163.322 38.296 163.263 38.0229 163.255 37.6023C163.255 37.1964 163.3 36.9086 163.396 36.7536H163.41Z" fill="#707173"/>
<path d="M166.274 38.7905L166.229 36.2666H166.03C165.978 36.3773 165.89 36.488 165.764 36.6135C165.639 36.7315 165.484 36.8275 165.314 36.916V37.2112C165.41 37.1743 165.521 37.1227 165.639 37.0489C165.757 36.9751 165.853 36.9013 165.927 36.8275L165.964 38.7979H166.274V38.7905Z" fill="#707173"/>
<path d="M168.06 38.8052C168.244 38.8052 168.399 38.7461 168.517 38.6502C168.635 38.5469 168.731 38.4066 168.783 38.2295C168.842 38.045 168.871 37.8015 168.864 37.5063C168.864 37.2628 168.835 37.0635 168.805 36.9159C168.753 36.7683 168.702 36.6429 168.635 36.5469C168.569 36.4362 168.488 36.3698 168.377 36.3108C168.266 36.2591 168.148 36.2296 168.015 36.237C167.831 36.237 167.676 36.2886 167.565 36.3919C167.447 36.4953 167.359 36.6355 167.292 36.8126C167.241 37.0045 167.211 37.2332 167.218 37.5358C167.226 38.0081 167.322 38.355 167.484 38.5616C167.624 38.7314 167.816 38.8199 168.06 38.8125V38.8052ZM167.676 36.6724C167.765 36.5543 167.875 36.4879 168.015 36.4879C168.17 36.4879 168.288 36.5543 168.384 36.6871C168.488 36.82 168.539 37.1004 168.547 37.5137C168.562 37.927 168.51 38.2 168.414 38.3402C168.325 38.4804 168.2 38.5469 168.067 38.5616C167.919 38.5616 167.801 38.4952 167.698 38.355C167.602 38.2221 167.551 37.9491 167.543 37.5284C167.543 37.1152 167.587 36.8273 167.683 36.6724H167.676Z" fill="#707173"/>
<path d="M170.768 36.5028C170.702 36.3995 170.613 36.3183 170.517 36.274C170.414 36.2224 170.288 36.1929 170.156 36.1929C169.971 36.2003 169.831 36.2519 169.705 36.3552C169.587 36.4585 169.499 36.5988 169.432 36.7833C169.381 36.9678 169.351 37.2113 169.359 37.5065C169.366 37.9788 169.462 38.3256 169.632 38.5249C169.764 38.702 169.964 38.7832 170.2 38.7758C170.392 38.7758 170.539 38.7242 170.657 38.6208C170.775 38.5175 170.864 38.3773 170.923 38.1928C170.982 38.0083 171.004 37.7722 171.004 37.477C171.004 37.226 170.982 37.0342 170.938 36.8792C170.901 36.7316 170.842 36.6061 170.775 36.5102L170.768 36.5028ZM170.547 38.3035C170.451 38.4437 170.333 38.5101 170.192 38.5175C170.06 38.5175 169.934 38.4511 169.838 38.3183C169.742 38.1854 169.683 37.9124 169.676 37.4917C169.676 37.0784 169.72 36.7906 169.823 36.6357C169.905 36.5176 170.008 36.4585 170.156 36.4585C170.288 36.4585 170.414 36.5176 170.517 36.6504C170.621 36.7833 170.672 37.0637 170.672 37.4696C170.687 37.8829 170.643 38.1559 170.547 38.3035Z" fill="#707173"/>
<path d="M172.155 36.4953C172.03 36.6134 171.882 36.7167 171.713 36.7979V37.1004C171.816 37.0709 171.919 37.0045 172.045 36.9381C172.163 36.8643 172.259 36.7905 172.333 36.7167L172.369 38.6871H172.679L172.628 36.1484H172.436C172.377 36.2591 172.296 36.3846 172.163 36.4953H172.155Z" fill="#707173"/>
<path d="M151.418 32.9087C151.351 32.8054 151.263 32.7316 151.167 32.6726C151.064 32.6209 150.946 32.5914 150.805 32.5988C150.621 32.5988 150.473 32.6504 150.348 32.7538C150.237 32.8571 150.141 32.9973 150.09 33.1818C150.03 33.3663 150.001 33.6024 150.001 33.905C150.008 34.3847 150.097 34.7242 150.281 34.9234C150.422 35.0932 150.613 35.1817 150.85 35.1743C151.042 35.1743 151.189 35.1153 151.315 35.0194C151.433 34.9161 151.521 34.7685 151.58 34.5913C151.639 34.4142 151.661 34.1707 151.661 33.8681C151.654 33.6246 151.639 33.4253 151.595 33.2703C151.558 33.1228 151.506 32.9973 151.425 32.9014L151.418 32.9087ZM151.204 34.7094C151.108 34.8496 150.99 34.9161 150.85 34.9234C150.709 34.9234 150.599 34.857 150.488 34.7168C150.392 34.5766 150.34 34.3109 150.333 33.8976C150.333 33.4844 150.37 33.1965 150.481 33.0489C150.554 32.9309 150.673 32.8571 150.805 32.8645C150.953 32.8645 151.078 32.9309 151.174 33.0637C151.278 33.2039 151.329 33.477 151.337 33.8903C151.337 34.3035 151.3 34.584 151.204 34.7242V34.7094Z" fill="#707173"/>
<path d="M152.99 35.1373C153.174 35.1226 153.329 35.0783 153.44 34.975C153.566 34.879 153.647 34.7314 153.706 34.5543C153.765 34.3698 153.787 34.1337 153.78 33.8311C153.78 33.5802 153.75 33.3809 153.713 33.2333C153.676 33.0857 153.61 32.9677 153.543 32.8643C153.477 32.761 153.396 32.6872 153.285 32.6356C153.189 32.5839 153.064 32.5618 152.924 32.5618C152.746 32.5618 152.591 32.6208 152.473 32.7167C152.355 32.8201 152.267 32.9603 152.215 33.1448C152.149 33.3293 152.127 33.5728 152.134 33.868C152.149 34.3403 152.237 34.6798 152.4 34.8864C152.54 35.0562 152.732 35.1373 152.983 35.1373H152.99ZM152.599 33.0046C152.687 32.8791 152.798 32.8201 152.938 32.8201C153.079 32.8201 153.204 32.8791 153.3 33.0119C153.403 33.1448 153.462 33.4252 153.462 33.8385C153.462 34.2444 153.425 34.5174 153.337 34.665C153.234 34.8052 153.123 34.879 152.983 34.879C152.835 34.879 152.724 34.82 152.621 34.6872C152.525 34.547 152.466 34.2739 152.459 33.8606C152.459 33.44 152.503 33.1595 152.599 33.0046Z" fill="#707173"/>
<path d="M155.47 35.0491L155.418 32.5178H155.219C155.167 32.6285 155.078 32.7466 154.946 32.8647C154.813 32.9828 154.665 33.0787 154.495 33.1599L154.51 33.4624C154.599 33.4255 154.702 33.3665 154.82 33.2927C154.946 33.2189 155.034 33.1451 155.108 33.0713L155.145 35.0417H155.455L155.47 35.0491Z" fill="#707173"/>
<path d="M157.256 35.0563C157.44 35.0563 157.595 35.0046 157.706 34.9013C157.824 34.798 157.92 34.6578 157.979 34.4733C158.03 34.2888 158.06 34.0526 158.053 33.75C158.053 33.5065 158.03 33.3073 157.986 33.1597C157.949 33.0121 157.898 32.894 157.824 32.7907C157.757 32.6873 157.669 32.6062 157.566 32.5545C157.462 32.5029 157.344 32.4807 157.204 32.4807C157.019 32.4807 156.872 32.5398 156.746 32.6357C156.628 32.739 156.54 32.8792 156.481 33.0637C156.422 33.2408 156.4 33.4918 156.407 33.7869C156.414 34.2593 156.503 34.5987 156.68 34.8054C156.82 34.9751 157.012 35.0563 157.256 35.0489V35.0563ZM156.872 32.9309C156.96 32.8054 157.064 32.739 157.211 32.7464C157.352 32.7464 157.47 32.8128 157.573 32.9383C157.669 33.0785 157.728 33.3515 157.735 33.7648C157.735 34.1707 157.698 34.4511 157.602 34.5913C157.514 34.7316 157.388 34.8054 157.248 34.8127C157.101 34.8127 156.983 34.7463 156.887 34.6061C156.783 34.4733 156.732 34.2002 156.724 33.7869C156.724 33.3737 156.769 33.0859 156.872 32.9309Z" fill="#707173"/>
<path d="M158.776 33.3885C158.872 33.3516 158.982 33.2925 159.1 33.2261C159.219 33.1523 159.314 33.0785 159.388 33.0047L159.425 34.9751H159.728L159.683 32.4438H159.484C159.433 32.5545 159.337 32.6652 159.211 32.7833C159.086 32.9014 158.931 33.0047 158.761 33.0859V33.3885H158.776Z" fill="#707173"/>
<path d="M162.089 32.7097C162.023 32.6138 161.934 32.54 161.831 32.4809C161.728 32.4219 161.61 32.3998 161.477 32.4071C161.292 32.4071 161.137 32.4662 161.027 32.5621C160.901 32.658 160.82 32.7983 160.754 32.9828C160.702 33.1673 160.665 33.4034 160.68 33.6986C160.68 34.1709 160.776 34.5178 160.945 34.717C161.086 34.8868 161.285 34.9753 161.521 34.9679C161.706 34.9679 161.861 34.9089 161.979 34.813C162.097 34.7096 162.178 34.5694 162.252 34.3923C162.303 34.2078 162.325 33.9643 162.325 33.6691C162.325 33.4182 162.296 33.2263 162.259 33.0787C162.215 32.9311 162.163 32.8056 162.089 32.7023V32.7097ZM161.875 34.5178C161.787 34.658 161.661 34.7244 161.521 34.7318C161.381 34.7318 161.255 34.6654 161.159 34.5325C161.064 34.3997 161.012 34.1266 160.997 33.7134C160.99 33.3001 161.034 33.0123 161.137 32.8573C161.226 32.7392 161.344 32.6728 161.484 32.6802C161.624 32.6802 161.75 32.7392 161.838 32.8721C161.942 33.0123 161.993 33.2853 162.001 33.6986C162.001 34.1119 161.964 34.3849 161.868 34.5252L161.875 34.5178Z" fill="#707173"/>
<path d="M163.049 33.3146C163.145 33.2777 163.248 33.2187 163.366 33.1449C163.492 33.0711 163.587 32.9973 163.647 32.9235L163.691 34.8939H163.993L163.949 32.3552H163.75C163.698 32.4733 163.61 32.5914 163.484 32.7095C163.351 32.8275 163.204 32.9309 163.027 33.012V33.3146H163.049Z" fill="#707173"/>
<path d="M166.362 32.6432C166.296 32.5325 166.2 32.4587 166.097 32.407C165.993 32.3628 165.883 32.3333 165.742 32.3333C165.558 32.3333 165.41 32.3923 165.292 32.4882C165.167 32.5915 165.086 32.7318 165.026 32.9163C164.967 33.1008 164.945 33.3369 164.945 33.6321C164.953 34.1118 165.049 34.4513 165.211 34.6579C165.359 34.835 165.55 34.9088 165.787 34.9088C165.971 34.9088 166.119 34.8498 166.244 34.7538C166.362 34.6505 166.458 34.5177 166.51 34.3258C166.561 34.1487 166.591 33.9052 166.584 33.61C166.584 33.3591 166.562 33.1672 166.517 33.0122C166.473 32.8646 166.421 32.7465 166.355 32.6432H166.362ZM166.148 34.4365C166.045 34.5767 165.934 34.6505 165.787 34.6505C165.639 34.6505 165.521 34.5841 165.425 34.4513C165.322 34.3184 165.27 34.0454 165.27 33.6247C165.27 33.2115 165.314 32.931 165.41 32.7687C165.491 32.6506 165.609 32.5915 165.75 32.5842C165.897 32.5842 166.015 32.6432 166.111 32.776C166.215 32.9163 166.266 33.1893 166.266 33.6026C166.281 34.0159 166.237 34.2889 166.141 34.4291L166.148 34.4365Z" fill="#707173"/>
<path d="M167.927 34.872C168.111 34.872 168.259 34.8129 168.384 34.717C168.502 34.6137 168.591 34.4661 168.65 34.2889C168.709 34.1044 168.738 33.8683 168.731 33.5731C168.724 33.3222 168.702 33.1229 168.657 32.9753C168.613 32.8277 168.561 32.7023 168.488 32.599C168.421 32.503 168.34 32.4292 168.237 32.3702C168.133 32.3185 168.015 32.2964 167.875 32.2964C167.691 32.2964 167.55 32.3554 167.418 32.4514C167.299 32.5547 167.218 32.6949 167.152 32.8794C167.1 33.0639 167.071 33.3 167.078 33.6026C167.085 34.0749 167.167 34.4144 167.344 34.621C167.484 34.7908 167.683 34.872 167.927 34.872ZM167.543 32.7392C167.632 32.6211 167.742 32.5547 167.89 32.5547C168.03 32.5547 168.155 32.6211 168.251 32.7539C168.347 32.8868 168.399 33.1598 168.406 33.5731C168.406 33.9864 168.369 34.2668 168.274 34.3996C168.178 34.5399 168.06 34.6063 167.919 34.6137C167.779 34.6137 167.661 34.5472 167.565 34.4144C167.462 34.2742 167.41 34.0011 167.403 33.5805C167.403 33.1746 167.454 32.8868 167.55 32.7318L167.543 32.7392Z" fill="#707173"/>
<path d="M170.399 34.7832L170.355 32.252H170.156C170.104 32.3627 170.015 32.4881 169.89 32.5988C169.757 32.7169 169.609 32.8128 169.44 32.9014V33.1966C169.543 33.1597 169.639 33.108 169.772 33.0342C169.89 32.9604 169.986 32.8866 170.06 32.8128L170.097 34.7832H170.406H170.399Z" fill="#707173"/>
<path d="M172.768 32.5251C172.701 32.4218 172.613 32.348 172.51 32.2964C172.406 32.2447 172.288 32.2152 172.148 32.2226C171.971 32.2226 171.816 32.2742 171.698 32.3775C171.58 32.4809 171.491 32.6211 171.432 32.8056C171.373 32.9901 171.344 33.2262 171.351 33.5214C171.366 34.0011 171.454 34.3332 171.624 34.5398C171.764 34.7169 171.956 34.7907 172.2 34.7907C172.384 34.7907 172.547 34.7317 172.657 34.6358C172.783 34.5325 172.871 34.3849 172.923 34.2077C172.982 34.0232 173.004 33.7871 173.004 33.4919C173.004 33.241 172.982 33.0417 172.938 32.9015C172.893 32.7465 172.842 32.6285 172.775 32.5251H172.768ZM172.547 34.3258C172.443 34.4587 172.325 34.5398 172.192 34.5325C172.052 34.5325 171.934 34.466 171.823 34.3332C171.735 34.193 171.676 33.9199 171.668 33.5067C171.668 33.086 171.713 32.8056 171.816 32.6506C171.897 32.5251 172.015 32.4661 172.155 32.4587C172.296 32.4587 172.421 32.5251 172.517 32.658C172.613 32.7908 172.665 33.0639 172.672 33.4771C172.679 33.883 172.635 34.1635 172.547 34.3111V34.3258Z" fill="#707173"/>
<path d="M151.034 22.5252L151.005 21.1599C150.909 21.2706 150.813 21.3961 150.702 21.4994L150.724 22.5326H151.034V22.5252Z" fill="#707173"/>
<path d="M152.828 22.5328C153.019 22.5328 153.167 22.4811 153.285 22.3778C153.403 22.2819 153.492 22.1417 153.551 21.9572C153.61 21.7727 153.639 21.5365 153.632 21.2413C153.632 20.9904 153.602 20.7911 153.573 20.6509C153.529 20.5033 153.47 20.3779 153.403 20.2746C153.337 20.1712 153.248 20.0974 153.145 20.0384C153.049 19.9867 152.924 19.9646 152.791 19.9646C152.614 19.9646 152.451 20.0163 152.341 20.1196C152.215 20.2155 152.126 20.3631 152.075 20.5402C152.023 20.7247 151.994 20.9609 151.994 21.2635C152.001 21.7358 152.097 22.0826 152.259 22.2893C152.407 22.459 152.599 22.5476 152.842 22.5328H152.828ZM152.451 20.4074C152.532 20.2893 152.643 20.2229 152.783 20.2229C152.931 20.2229 153.056 20.2893 153.152 20.4222C153.256 20.555 153.307 20.828 153.315 21.2487C153.322 21.6546 153.278 21.935 153.182 22.0752C153.093 22.2155 152.975 22.2819 152.835 22.2893C152.695 22.2893 152.569 22.2228 152.473 22.09C152.37 21.9572 152.318 21.6767 152.318 21.2635C152.318 20.8502 152.363 20.5698 152.466 20.4074H152.451Z" fill="#707173"/>
<path d="M154.968 22.4958C155.152 22.4958 155.3 22.4441 155.418 22.3408C155.529 22.2301 155.625 22.0899 155.684 21.9054C155.735 21.7209 155.772 21.4774 155.765 21.1896C155.765 20.9386 155.735 20.7468 155.691 20.5918C155.654 20.4442 155.603 20.3187 155.536 20.2228C155.47 20.1195 155.381 20.0457 155.278 19.9866C155.175 19.9276 155.056 19.9128 154.924 19.9128C154.739 19.9128 154.591 19.9645 154.459 20.0678C154.341 20.1711 154.259 20.3114 154.2 20.4959C154.134 20.6803 154.119 20.9239 154.112 21.2191C154.127 21.6914 154.215 22.0382 154.385 22.2449C154.525 22.422 154.717 22.5032 154.968 22.4958ZM154.584 20.363C154.658 20.2449 154.776 20.1785 154.916 20.1785C155.064 20.1785 155.182 20.2376 155.278 20.3778C155.374 20.5106 155.433 20.7837 155.44 21.1969C155.44 21.6102 155.403 21.8833 155.307 22.0309C155.211 22.1637 155.101 22.2375 154.953 22.2375C154.806 22.2449 154.687 22.1785 154.584 22.0456C154.488 21.9128 154.437 21.6324 154.429 21.2265C154.429 20.8132 154.466 20.5254 154.577 20.3704L154.584 20.363Z" fill="#707173"/>
<path d="M157.101 20.4442L157.137 22.4146H157.447L157.403 19.8833H157.204C157.145 19.9866 157.064 20.1047 156.938 20.2228C156.813 20.3409 156.658 20.4368 156.488 20.5253V20.8279C156.591 20.791 156.702 20.7394 156.813 20.6656C156.938 20.5918 157.034 20.518 157.108 20.4442H157.101Z" fill="#707173"/>
<path d="M159.226 22.4221C159.41 22.4221 159.565 22.3704 159.683 22.2671C159.802 22.1638 159.89 22.0236 159.949 21.8391C160.008 21.662 160.038 21.4184 160.03 21.1232C160.03 20.8723 160.001 20.6804 159.964 20.5329C159.92 20.3853 159.868 20.2598 159.802 20.1565C159.735 20.0532 159.639 19.9794 159.543 19.9277C159.433 19.876 159.314 19.8465 159.189 19.8539C158.997 19.8539 158.842 19.9056 158.731 20.0089C158.613 20.1122 158.525 20.245 158.466 20.4369C158.407 20.614 158.385 20.8576 158.392 21.1528C158.392 21.6251 158.488 21.9719 158.658 22.1786C158.805 22.3483 158.99 22.4295 159.233 22.4295L159.226 22.4221ZM158.85 20.2893C158.931 20.1712 159.041 20.1048 159.189 20.1048C159.329 20.0974 159.447 20.1639 159.551 20.2967C159.654 20.4369 159.706 20.71 159.713 21.1232C159.72 21.5365 159.676 21.8096 159.58 21.9498C159.492 22.09 159.366 22.1564 159.226 22.1638C159.078 22.1638 158.96 22.0974 158.857 21.9572C158.761 21.8243 158.709 21.5439 158.702 21.1306C158.695 20.7247 158.739 20.4295 158.842 20.2819L158.85 20.2893Z" fill="#707173"/>
<path d="M161.359 20.3631L161.403 22.3409H161.705L161.661 19.8022H161.462C161.41 19.9203 161.322 20.031 161.189 20.1565C161.063 20.2672 160.916 20.3705 160.746 20.4591V20.7542C160.842 20.71 160.953 20.6583 161.071 20.5845C161.189 20.5107 161.285 20.4369 161.359 20.3631Z" fill="#707173"/>
<path d="M163.506 22.3408C163.691 22.3408 163.838 22.2891 163.956 22.1858C164.074 22.0825 164.163 21.9422 164.222 21.7578C164.281 21.5733 164.303 21.3297 164.303 21.0345C164.303 20.7836 164.281 20.5844 164.244 20.4441C164.2 20.2965 164.141 20.1637 164.082 20.0678C164.001 19.9718 163.927 19.8907 163.816 19.839C163.72 19.7873 163.595 19.7578 163.462 19.7578C163.277 19.7652 163.13 19.8169 163.012 19.9128C162.886 20.0161 162.805 20.1563 162.746 20.3408C162.68 20.5253 162.658 20.7615 162.665 21.0567C162.665 21.529 162.761 21.8758 162.938 22.0825C163.078 22.2522 163.277 22.3334 163.514 22.326L163.506 22.3408ZM163.115 20.2154C163.196 20.0899 163.307 20.0309 163.455 20.0235C163.595 20.0235 163.72 20.0825 163.816 20.2227C163.912 20.363 163.971 20.636 163.971 21.0493C163.979 21.4626 163.934 21.743 163.846 21.8832C163.75 22.0161 163.632 22.0898 163.491 22.0898C163.351 22.0898 163.233 22.0234 163.13 21.8906C163.034 21.7578 162.975 21.4847 162.975 21.064C162.968 20.6508 163.012 20.3703 163.115 20.2154Z" fill="#707173"/>
<path d="M165.632 20.2891L165.669 22.2669H165.971L165.927 19.7283H165.728C165.676 19.839 165.587 19.957 165.462 20.0751C165.336 20.1858 165.181 20.2891 165.012 20.3777V20.6729C165.115 20.636 165.218 20.577 165.344 20.5105C165.462 20.4367 165.565 20.3556 165.632 20.2891Z" fill="#707173"/>
<path d="M167.764 22.267C167.956 22.267 168.104 22.2153 168.222 22.112C168.34 22.0087 168.436 21.8758 168.488 21.684C168.547 21.5068 168.569 21.2633 168.569 20.9681C168.569 20.7172 168.547 20.5253 168.51 20.3777C168.465 20.2301 168.406 20.0973 168.347 20.0014C168.281 19.898 168.192 19.8242 168.089 19.7652C167.993 19.7135 167.868 19.6914 167.735 19.6914C167.55 19.6914 167.403 19.7431 167.285 19.839C167.167 19.9423 167.071 20.0899 167.012 20.267C166.953 20.4515 166.923 20.6877 166.938 20.9903C166.945 21.4626 167.034 21.802 167.204 22.0087C167.344 22.1784 167.536 22.267 167.779 22.2596L167.764 22.267ZM167.381 20.1416C167.462 20.0161 167.58 19.9497 167.72 19.9497C167.868 19.9497 167.986 20.0161 168.089 20.149C168.192 20.2892 168.244 20.5622 168.244 20.9755C168.259 21.3888 168.215 21.6692 168.119 21.8094C168.023 21.9423 167.905 22.0161 167.764 22.0161C167.617 22.0161 167.499 21.9496 167.403 21.8242C167.307 21.684 167.248 21.4109 167.248 20.9976C167.24 20.5844 167.285 20.3039 167.388 20.149L167.381 20.1416Z" fill="#707173"/>
<path d="M169.905 22.2375C170.089 22.2375 170.237 22.1784 170.362 22.0751C170.48 21.9718 170.569 21.8316 170.628 21.6471C170.687 21.4626 170.709 21.2265 170.702 20.9313C170.702 20.6803 170.672 20.4811 170.635 20.3409C170.598 20.1933 170.539 20.0678 170.473 19.9645C170.399 19.8612 170.31 19.7874 170.215 19.7283C170.111 19.6767 169.993 19.6545 169.86 19.6545C169.676 19.6545 169.528 19.7062 169.403 19.8095C169.285 19.9055 169.196 20.0531 169.144 20.2376C169.078 20.4147 169.049 20.6508 169.063 20.9534C169.063 21.4257 169.167 21.7652 169.329 21.9718C169.469 22.1416 169.661 22.2301 169.905 22.2301V22.2375ZM169.521 20.0973C169.602 19.9793 169.713 19.9128 169.853 19.9055C170.001 19.9055 170.119 19.9645 170.215 20.1047C170.318 20.2449 170.37 20.518 170.384 20.9313C170.384 21.3445 170.347 21.6176 170.251 21.7652C170.156 21.9054 170.045 21.9718 169.897 21.9718C169.757 21.9718 169.632 21.9054 169.536 21.7726C169.44 21.6397 169.381 21.3667 169.381 20.9534C169.373 20.5327 169.418 20.2523 169.528 20.0973H169.521Z" fill="#707173"/>
<path d="M171.417 20.267V20.5622C171.521 20.5253 171.624 20.4662 171.742 20.3924C171.868 20.326 171.964 20.2522 172.03 20.1784L172.067 22.1488H172.377L172.347 20.2301C172.207 20.112 172.074 19.9792 171.934 19.8611C171.905 19.8906 171.897 19.9275 171.868 19.9496C171.735 20.0677 171.587 20.171 171.417 20.2522V20.267Z" fill="#707173"/>
<path d="M148.783 26.8868C148.968 26.8868 149.115 26.8278 149.234 26.7244C149.352 26.6285 149.44 26.4809 149.499 26.2964C149.558 26.1193 149.58 25.8758 149.58 25.5806C149.58 25.3297 149.551 25.1304 149.507 24.9828C149.47 24.8352 149.418 24.7097 149.344 24.6064C149.278 24.5031 149.197 24.4293 149.086 24.3777C148.99 24.326 148.872 24.2965 148.732 24.3039C148.717 24.3039 148.702 24.3039 148.68 24.3112C148.614 24.4441 148.532 24.5621 148.459 24.6876C148.532 24.6138 148.621 24.5622 148.732 24.5622C148.879 24.5622 149.005 24.6286 149.101 24.7614C149.197 24.8942 149.256 25.1747 149.256 25.5879C149.27 26.0012 149.226 26.2817 149.13 26.4145C149.034 26.5547 148.924 26.6285 148.769 26.6285C148.628 26.6285 148.51 26.5621 148.414 26.4293C148.318 26.289 148.267 26.016 148.259 25.6027C148.252 25.3444 148.274 25.1525 148.318 24.9976C148.186 25.2485 148.067 25.5068 147.957 25.7724C147.986 26.1562 148.06 26.4514 148.208 26.6285C148.348 26.7982 148.54 26.8868 148.783 26.8868Z" fill="#707173"/>
<path d="M150.916 24.8353L150.953 26.8057H151.263L151.219 24.2744H151.012C150.961 24.3851 150.879 24.5032 150.739 24.6139C150.614 24.732 150.466 24.8353 150.296 24.9165V25.219C150.4 25.1821 150.503 25.1305 150.621 25.0567C150.747 24.9829 150.843 24.9091 150.916 24.8427V24.8353Z" fill="#707173"/>
<path d="M153.617 24.5401C153.551 24.4442 153.462 24.363 153.359 24.3113C153.248 24.267 153.138 24.2301 152.997 24.2375C152.82 24.2375 152.665 24.2966 152.547 24.3999C152.422 24.4958 152.341 24.6434 152.274 24.8205C152.222 25.005 152.193 25.2412 152.2 25.5438C152.2 26.0234 152.289 26.3555 152.466 26.5696C152.606 26.7393 152.805 26.8278 153.042 26.8205C153.226 26.8205 153.381 26.7688 153.499 26.6581C153.617 26.5548 153.706 26.422 153.765 26.2301C153.824 26.053 153.846 25.8094 153.839 25.5142C153.839 25.2707 153.809 25.0641 153.765 24.9165C153.728 24.7689 153.669 24.6434 153.603 24.5401H153.617ZM153.403 26.3482C153.3 26.4884 153.189 26.5548 153.049 26.5548C152.909 26.5548 152.791 26.4958 152.687 26.3555C152.584 26.2153 152.532 25.9423 152.518 25.529C152.51 25.1157 152.562 24.8353 152.665 24.6803C152.746 24.5548 152.857 24.4958 152.997 24.4884C153.138 24.4884 153.263 24.5549 153.359 24.6877C153.462 24.8205 153.521 25.0936 153.529 25.5069C153.529 25.9201 153.492 26.2006 153.396 26.3408L153.403 26.3482Z" fill="#707173"/>
<path d="M155.743 24.5031C155.684 24.3997 155.595 24.326 155.492 24.2669C155.388 24.2153 155.27 24.1931 155.13 24.1931C154.946 24.1931 154.798 24.2522 154.68 24.3555C154.562 24.4514 154.473 24.5916 154.414 24.7761C154.363 24.9532 154.333 25.1968 154.34 25.4993C154.348 25.9717 154.444 26.3111 154.614 26.5251C154.746 26.6875 154.938 26.7687 155.189 26.7687C155.374 26.7687 155.521 26.7096 155.647 26.6137C155.765 26.5104 155.853 26.3702 155.905 26.1857C155.964 26.0012 155.986 25.765 155.986 25.4698C155.979 25.2189 155.957 25.0197 155.92 24.8721C155.883 24.7318 155.824 24.599 155.75 24.5031H155.743ZM155.536 26.3038C155.44 26.444 155.315 26.5104 155.167 26.5178C155.034 26.5178 154.916 26.4587 154.82 26.3185C154.717 26.1857 154.658 25.9052 154.658 25.4993C154.643 25.0861 154.695 24.7983 154.798 24.6433C154.887 24.5252 154.997 24.4588 155.138 24.4588C155.278 24.4588 155.403 24.5252 155.506 24.658C155.595 24.7909 155.661 25.0713 155.661 25.4846C155.661 25.8979 155.625 26.1709 155.536 26.3111V26.3038Z" fill="#707173"/>
<path d="M157.883 24.459C157.816 24.363 157.728 24.2819 157.632 24.2302C157.521 24.1785 157.403 24.149 157.27 24.1564C157.093 24.1564 156.931 24.2154 156.82 24.3114C156.702 24.4147 156.613 24.5549 156.554 24.732C156.495 24.9165 156.473 25.1527 156.481 25.4553C156.481 25.9276 156.577 26.267 156.746 26.4737C156.894 26.6508 157.086 26.732 157.329 26.732C157.514 26.7246 157.669 26.6729 157.787 26.5696C157.905 26.4737 157.993 26.3261 158.053 26.149C158.112 25.9645 158.134 25.7283 158.126 25.4257C158.126 25.1822 158.097 24.9756 158.06 24.8353C158.023 24.6951 157.964 24.5697 157.898 24.459H157.883ZM157.661 26.267C157.573 26.4073 157.455 26.4811 157.315 26.4811C157.174 26.4811 157.049 26.422 156.953 26.2892C156.857 26.149 156.798 25.8759 156.798 25.4626C156.783 25.0494 156.835 24.7615 156.946 24.6066C157.027 24.4885 157.137 24.4221 157.285 24.4147C157.425 24.4147 157.543 24.4811 157.647 24.6139C157.743 24.7468 157.794 25.0198 157.809 25.4405C157.809 25.8538 157.765 26.1268 157.669 26.267H157.661Z" fill="#707173"/>
<path d="M160.016 24.4293C159.949 24.326 159.868 24.2522 159.765 24.2005C159.669 24.1489 159.543 24.1267 159.411 24.1267C159.219 24.1267 159.071 24.1857 158.953 24.2891C158.835 24.385 158.746 24.5326 158.687 24.7097C158.628 24.8942 158.606 25.1378 158.606 25.4403C158.606 25.9126 158.702 26.2521 158.864 26.4514C159.012 26.6285 159.211 26.7097 159.448 26.7097C159.632 26.7097 159.78 26.6506 159.898 26.5547C160.023 26.4587 160.104 26.3112 160.163 26.1267C160.222 25.9422 160.252 25.6986 160.237 25.4034C160.237 25.1599 160.222 24.9606 160.171 24.813C160.134 24.6728 160.082 24.54 160.008 24.444L160.016 24.4293ZM159.794 26.23C159.706 26.3702 159.595 26.4366 159.448 26.4366C159.307 26.4366 159.189 26.3776 159.086 26.2373C158.99 26.0971 158.938 25.8241 158.916 25.4108C158.916 24.9975 158.96 24.7171 159.064 24.5621C159.152 24.4367 159.263 24.3776 159.403 24.3702C159.551 24.3702 159.676 24.4367 159.78 24.5769C159.868 24.7097 159.927 24.9902 159.935 25.396C159.935 25.8093 159.898 26.0898 159.794 26.23Z" fill="#707173"/>
<path d="M161.418 24.422C161.285 24.5401 161.137 24.6434 160.968 24.732V25.0271C161.071 24.9902 161.174 24.9386 161.292 24.8574C161.418 24.791 161.514 24.7172 161.587 24.6434L161.617 26.6138H161.927L161.883 24.0825H161.683C161.639 24.1932 161.543 24.3039 161.418 24.422Z" fill="#707173"/>
<path d="M164.289 24.3482C164.222 24.2523 164.134 24.1711 164.038 24.1195C163.934 24.0678 163.816 24.0457 163.676 24.0457C163.492 24.0457 163.344 24.1047 163.226 24.208C163.108 24.3039 163.012 24.4442 162.96 24.6287C162.909 24.8132 162.879 25.0567 162.886 25.3519C162.886 25.8242 162.982 26.1637 163.145 26.3703C163.292 26.5474 163.477 26.6212 163.72 26.6212C163.905 26.6212 164.06 26.5622 164.178 26.4662C164.289 26.3629 164.384 26.2227 164.436 26.0382C164.495 25.8537 164.517 25.6102 164.517 25.3224C164.517 25.0715 164.488 24.8722 164.451 24.7246C164.414 24.577 164.355 24.4515 164.289 24.3482ZM164.067 26.1563C163.971 26.2891 163.853 26.3629 163.713 26.3703C163.573 26.3703 163.447 26.3039 163.351 26.171C163.255 26.0308 163.204 25.7578 163.189 25.3445C163.182 24.9312 163.226 24.6508 163.337 24.4958C163.418 24.3704 163.528 24.3039 163.676 24.3113C163.816 24.3039 163.942 24.3704 164.038 24.5032C164.141 24.6434 164.2 24.9091 164.2 25.3297C164.2 25.743 164.163 26.0161 164.067 26.1563Z" fill="#707173"/>
<path d="M165.683 24.3481C165.558 24.4662 165.41 24.5621 165.233 24.6507V24.9459C165.336 24.909 165.447 24.8573 165.565 24.7835C165.676 24.7097 165.779 24.6359 165.846 24.5621L165.89 26.5326H166.193L166.156 23.9939H165.956C165.905 24.112 165.816 24.2227 165.691 24.3481H165.683Z" fill="#707173"/>
<path d="M168.554 24.2744C168.488 24.1785 168.399 24.0973 168.296 24.0456C168.185 23.994 168.074 23.9644 167.942 23.9718C167.757 23.9718 167.602 24.0161 167.484 24.1194C167.366 24.2227 167.27 24.3703 167.218 24.5475C167.159 24.732 167.13 24.9755 167.137 25.2707C167.144 25.7504 167.24 26.0825 167.41 26.2965C167.55 26.4662 167.75 26.54 167.986 26.54C168.163 26.54 168.325 26.481 168.436 26.385C168.561 26.2817 168.643 26.1415 168.702 25.957C168.761 25.7725 168.783 25.5364 168.783 25.2412C168.783 24.9902 168.761 24.791 168.716 24.6508C168.687 24.4958 168.628 24.3777 168.554 24.2744ZM168.333 26.0751C168.244 26.2153 168.126 26.2817 167.986 26.2891C167.846 26.2891 167.72 26.2227 167.617 26.0898C167.513 25.957 167.462 25.684 167.454 25.2633C167.447 24.85 167.491 24.5622 167.595 24.4146C167.683 24.2965 167.794 24.2375 167.934 24.2227C168.082 24.2227 168.2 24.2892 168.296 24.422C168.399 24.5548 168.451 24.8353 168.458 25.2559C168.465 25.6692 168.429 25.9422 168.325 26.0825L168.333 26.0751Z" fill="#707173"/>
<path d="M170.466 26.4515L170.414 23.9202H170.215C170.163 24.0382 170.082 24.1489 169.942 24.267C169.816 24.3851 169.669 24.4884 169.499 24.577V24.8648C169.602 24.8353 169.705 24.7762 169.831 24.7024C169.949 24.6286 170.045 24.5548 170.119 24.4884L170.156 26.4588L170.473 26.4441L170.466 26.4515Z" fill="#707173"/>
<path d="M171.993 24.4513L172.03 26.4217H172.347L172.296 23.8831H172.096C172.045 24.0011 171.956 24.1118 171.823 24.2373C171.698 24.3554 171.543 24.4587 171.373 24.5399V24.8351C171.484 24.7982 171.587 24.7465 171.705 24.6727C171.831 24.5989 171.927 24.5251 171.993 24.4513Z" fill="#707173"/>
<path d="M149.13 28.9164C149.005 29.0418 148.857 29.1378 148.68 29.2263V29.5215C148.783 29.4772 148.887 29.4256 149.012 29.3592C149.13 29.278 149.219 29.2116 149.292 29.1378L149.329 31.1156H149.639L149.595 28.5769H149.403C149.344 28.6876 149.256 28.8057 149.13 28.9238V28.9164Z" fill="#707173"/>
<path d="M151.514 31.0711L151.477 28.5398H151.278C151.226 28.6505 151.145 28.7686 151.012 28.8866C150.879 29.0047 150.732 29.1007 150.562 29.1892V29.4844C150.665 29.4475 150.769 29.3959 150.887 29.3221C151.005 29.2483 151.108 29.1818 151.182 29.1007L151.219 31.0711H151.521H151.514Z" fill="#707173"/>
<path d="M153.388 31.0416L153.344 28.5029H153.145C153.086 28.621 152.997 28.7317 152.872 28.8498C152.746 28.9679 152.599 29.0712 152.422 29.1524V29.4476C152.525 29.4107 152.628 29.359 152.746 29.2852C152.864 29.2114 152.96 29.1376 153.034 29.0638L153.071 31.0342H153.381L153.388 31.0416Z" fill="#707173"/>
<path d="M155.905 30.4662C155.964 30.2891 155.986 30.0455 155.979 29.7503C155.979 29.4994 155.949 29.3002 155.92 29.16C155.876 29.0124 155.817 28.8869 155.75 28.791C155.684 28.6876 155.595 28.6065 155.492 28.5548C155.389 28.5031 155.278 28.481 155.138 28.4736C154.953 28.4736 154.798 28.5253 154.68 28.636C154.562 28.7319 154.473 28.8795 154.414 29.064C154.355 29.2411 154.333 29.4847 154.333 29.7799C154.348 30.2522 154.437 30.5916 154.599 30.7983C154.747 30.968 154.931 31.0566 155.182 31.0492C155.366 31.0492 155.514 30.9902 155.639 30.8942C155.758 30.7909 155.846 30.6433 155.905 30.4662ZM155.182 30.7909C155.034 30.7909 154.916 30.7245 154.82 30.5916C154.717 30.4588 154.665 30.1858 154.658 29.7725C154.651 29.3592 154.702 29.0714 154.806 28.9164C154.894 28.7983 154.997 28.7319 155.145 28.7319C155.285 28.7319 155.411 28.791 155.514 28.9238C155.61 29.0566 155.662 29.3371 155.669 29.7503C155.676 30.1562 155.639 30.4367 155.536 30.5769C155.44 30.7171 155.322 30.7835 155.189 30.7909H155.182Z" fill="#707173"/>
<path d="M157.315 31.0123C157.499 31.0123 157.647 30.9533 157.765 30.85C157.883 30.7467 157.979 30.6138 158.03 30.4293C158.089 30.2448 158.112 30.0013 158.112 29.7061C158.112 29.4626 158.089 29.2633 158.038 29.1157C158.001 28.9755 157.949 28.8427 157.875 28.7393C157.802 28.636 157.72 28.5622 157.624 28.5106C157.514 28.4589 157.396 28.4368 157.263 28.4368C157.078 28.4368 156.923 28.4884 156.813 28.5917C156.687 28.6951 156.606 28.8427 156.547 29.0198C156.488 29.2043 156.466 29.4478 156.466 29.7356C156.466 30.2153 156.569 30.5474 156.724 30.754C156.872 30.9238 157.064 31.0123 157.307 31.0123H157.315ZM156.938 28.8796C157.027 28.7615 157.137 28.6951 157.278 28.6877C157.418 28.6877 157.543 28.7541 157.639 28.8796C157.735 29.0272 157.794 29.3002 157.802 29.7061C157.802 30.1194 157.765 30.3924 157.669 30.54C157.573 30.6802 157.455 30.7467 157.315 30.754C157.167 30.754 157.056 30.695 156.953 30.5548C156.85 30.4146 156.805 30.1489 156.791 29.7356C156.791 29.315 156.835 29.0345 156.938 28.8796Z" fill="#707173"/>
<path d="M159.794 30.9162L159.757 28.3923H159.558C159.506 28.503 159.418 28.6211 159.285 28.7318C159.167 28.8499 159.019 28.9606 158.842 29.0418V29.3443C158.945 29.3074 159.056 29.2558 159.174 29.182C159.3 29.1082 159.396 29.0344 159.469 28.9606L159.499 30.9384H159.809L159.794 30.9162Z" fill="#707173"/>
<path d="M162.156 28.6654C162.082 28.5621 162.001 28.4883 161.897 28.4293C161.794 28.3776 161.676 28.3555 161.536 28.3555C161.351 28.3702 161.204 28.4145 161.086 28.5104C160.968 28.6211 160.886 28.7614 160.827 28.9385C160.761 29.123 160.739 29.3665 160.739 29.6617C160.746 30.1414 160.842 30.4735 161.012 30.6801C161.152 30.8499 161.351 30.9384 161.587 30.931C161.765 30.9237 161.92 30.8794 162.038 30.7687C162.156 30.6727 162.244 30.5251 162.303 30.348C162.362 30.1635 162.392 29.92 162.384 29.6322C162.384 29.3813 162.355 29.1894 162.311 29.0418C162.274 28.8942 162.222 28.7687 162.148 28.6654H162.156ZM161.934 30.4661C161.846 30.6063 161.72 30.6801 161.58 30.6801C161.44 30.6801 161.314 30.6137 161.218 30.4809C161.115 30.348 161.063 30.0676 161.056 29.6617C161.049 29.241 161.093 28.9606 161.196 28.8056C161.292 28.6876 161.396 28.6211 161.536 28.6211C161.683 28.6211 161.809 28.6802 161.905 28.813C162.001 28.9459 162.06 29.2263 162.075 29.6322C162.075 30.0455 162.038 30.3259 161.942 30.4587L161.934 30.4661Z" fill="#707173"/>
<path d="M164.067 30.8423L164.023 28.3184H163.824C163.772 28.4291 163.683 28.5398 163.551 28.6578C163.425 28.7759 163.277 28.8792 163.1 28.9604V29.263C163.204 29.2187 163.307 29.167 163.432 29.1006C163.551 29.0268 163.646 28.953 163.72 28.8866L163.757 30.8496H164.067V30.8423Z" fill="#707173"/>
<path d="M166.421 28.5844C166.355 28.4884 166.274 28.4146 166.163 28.3556C166.06 28.2966 165.942 28.2818 165.809 28.2744C165.624 28.2818 165.477 28.3335 165.351 28.4294C165.241 28.5327 165.152 28.6729 165.093 28.8574C165.034 29.0419 165.004 29.2781 165.019 29.588C165.019 30.053 165.108 30.3998 165.277 30.6065C165.425 30.7762 165.61 30.8574 165.853 30.8574C166.038 30.85 166.193 30.7983 166.311 30.695C166.414 30.5917 166.517 30.4588 166.569 30.2744C166.628 30.0899 166.65 29.8463 166.635 29.5585C166.635 29.3076 166.613 29.1083 166.576 28.9607C166.539 28.8205 166.48 28.6951 166.414 28.5917L166.421 28.5844ZM166.2 30.3851C166.104 30.5253 165.986 30.5991 165.846 30.5991C165.705 30.5991 165.58 30.5326 165.484 30.3998C165.388 30.267 165.329 29.9939 165.322 29.5807C165.322 29.1674 165.366 28.8796 165.477 28.7246C165.558 28.6065 165.669 28.5475 165.816 28.5401C165.956 28.5401 166.074 28.6065 166.178 28.7393C166.274 28.8722 166.325 29.1452 166.34 29.5659C166.34 29.9792 166.303 30.2522 166.207 30.3924L166.2 30.3851Z" fill="#707173"/>
<path d="M168.325 30.7762L168.281 28.2449H168.082C168.03 28.3556 167.942 28.4736 167.816 28.5917C167.683 28.7024 167.536 28.8131 167.366 28.8943V29.1969C167.469 29.16 167.573 29.1083 167.691 29.0271C167.809 28.9533 167.912 28.8795 167.986 28.8057L168.015 30.7762H168.318H168.325Z" fill="#707173"/>
<path d="M170.687 28.5103C170.621 28.407 170.539 28.3332 170.436 28.2816C170.333 28.2299 170.215 28.2078 170.074 28.2078C169.89 28.2078 169.742 28.2668 169.624 28.3627C169.499 28.4587 169.418 28.6063 169.351 28.7908C169.292 28.9753 169.27 29.2114 169.27 29.5066C169.277 29.9789 169.373 30.3184 169.543 30.525C169.683 30.6948 169.875 30.7833 170.119 30.7759C170.303 30.7759 170.458 30.7243 170.569 30.621C170.694 30.5177 170.776 30.3774 170.842 30.2003C170.894 30.0158 170.923 29.7797 170.916 29.4771C170.916 29.2262 170.886 29.0343 170.849 28.8867C170.805 28.7391 170.753 28.6137 170.68 28.5103H170.687ZM170.473 30.311C170.377 30.4439 170.259 30.525 170.119 30.525C169.971 30.525 169.86 30.4586 169.757 30.3258C169.661 30.1929 169.602 29.9199 169.595 29.4992C169.58 29.086 169.632 28.8055 169.735 28.6506C169.816 28.5251 169.927 28.4661 170.074 28.4661C170.215 28.4661 170.347 28.5325 170.443 28.6579C170.539 28.7908 170.591 29.0712 170.606 29.4845C170.606 29.8904 170.569 30.1708 170.473 30.311Z" fill="#707173"/>
<path d="M172.82 28.4662C172.753 28.3702 172.665 28.289 172.569 28.2374C172.465 28.1857 172.34 28.1636 172.207 28.1636C172.03 28.171 171.868 28.2152 171.75 28.3186C171.631 28.4219 171.55 28.5621 171.484 28.7466C171.425 28.9311 171.403 29.1672 171.41 29.4698C171.417 29.9421 171.506 30.289 171.676 30.4808C171.823 30.658 172.008 30.7391 172.251 30.7318C172.436 30.7318 172.591 30.6801 172.709 30.5842C172.827 30.4808 172.916 30.3333 172.975 30.1561C173.026 29.9716 173.063 29.7355 173.048 29.4403C173.048 29.1968 173.026 28.9901 172.989 28.8499C172.938 28.7023 172.893 28.5769 172.82 28.4735V28.4662ZM172.606 30.2816C172.517 30.4144 172.392 30.4882 172.259 30.4882C172.111 30.4882 171.993 30.4218 171.89 30.2964C171.794 30.1635 171.735 29.8831 171.727 29.4698C171.72 29.0639 171.764 28.7687 171.868 28.6137C171.949 28.4957 172.067 28.4366 172.2 28.4292C172.355 28.4292 172.465 28.4957 172.569 28.6285C172.672 28.7687 172.724 29.0418 172.724 29.455C172.738 29.8757 172.694 30.1488 172.591 30.289L172.606 30.2816Z" fill="#707173"/>
</g>
<path d="M37.3622 11.5293H47.2364L47.9301 1.16064H53.3101L51.5979 26.754H46.218L46.9339 16.0606H37.0596L36.3438 26.754H30.9639L32.676 1.16064H38.0559L37.3622 11.5293Z" fill="white"/>
<path d="M71.6268 1.16064L80.822 26.754H74.837L72.8961 20.6582H61.7746L59.0884 26.754H53.4207L65.9369 1.16064H71.6415H71.6268ZM63.8189 16.0901H71.4423L68.2173 6.25274L63.8189 16.0901Z" fill="white"/>
<path d="M91.1243 1.16064L100.371 19.5512L101.353 1.16064H106.843L105.131 26.754H98.8953L89.176 7.39662L88.1281 26.754H82.6006L84.3127 1.16064H91.1169H91.1243Z" fill="white"/>
<path d="M120.083 5.72153C118.917 5.74367 117.921 5.9872 117.094 6.45213C116.268 6.91706 115.81 7.80264 115.722 9.10888C115.655 10.1052 115.943 10.821 116.592 11.249C117.242 11.6771 118.017 11.8911 118.917 11.8911L126.046 11.8542C126.304 11.8763 126.577 11.8911 126.865 11.8911C127.153 11.8911 127.433 11.9058 127.721 11.928C128.548 11.9723 129.36 12.1125 130.157 12.3413C130.946 12.57 131.632 12.9759 132.216 13.5737C132.754 14.0977 133.138 14.7249 133.374 15.4629C133.61 16.2009 133.736 16.961 133.758 17.7433C133.765 17.9795 133.765 18.2156 133.758 18.437C133.758 18.6658 133.743 18.8946 133.728 19.1307C133.485 22.1048 132.525 24.1121 130.865 25.1748C129.205 26.2301 127.005 26.7615 124.275 26.7615H109.943L110.246 22.2007H123.721C124.909 22.2229 125.95 22.031 126.843 21.6325C127.736 21.2266 128.149 20.3115 128.075 18.8872C128.031 17.7728 127.662 17.0791 126.968 16.8208C126.275 16.5625 125.441 16.4149 124.467 16.3928L118.127 16.3559C115.485 16.378 113.441 15.8541 111.98 14.7692C110.519 13.6918 109.899 11.7361 110.105 8.90962C110.349 5.94292 111.316 3.91346 112.991 2.836C114.666 1.75855 116.873 1.21244 119.603 1.21244L133.684 1.17554L133.382 5.73629H120.09L120.083 5.72153Z" fill="white"/>
<path d="M11.1637 41.0045H23.8866L22.8682 56.1849H11.2818C9.80586 56.1849 8.38893 56.0594 7.03103 55.8085C5.66576 55.5576 4.42595 54.9451 3.30421 53.9709C1.95369 52.8049 1.05335 51.388 0.595802 49.7127C0.138251 48.0375 -0.053625 46.318 0.0127937 44.5616C0.0127937 44.1779 0.0349332 43.8162 0.0718325 43.4546C0.108732 43.1004 0.145631 42.7388 0.19729 42.3846C0.728639 38.3478 2.02749 35.3737 4.09385 33.4771C6.16021 31.5731 9.12691 30.6285 13.0013 30.6285L24.5877 30.5916L24.2925 35.0121H12.7061C10.1601 35.0342 8.45534 35.9346 7.5919 37.7057C6.72108 39.4769 6.21925 41.4178 6.07903 43.5358C6.07903 43.558 6.07903 43.5801 6.07903 43.5875C6.07903 43.6022 6.07903 43.617 6.07903 43.6391C5.93143 45.8014 6.18235 47.6685 6.8244 49.2331C7.46644 50.7976 9.06049 51.5872 11.5992 51.5872L17.658 51.5503L18.0639 45.5284H10.8612L11.1637 41.0045Z" fill="white"/>
<path d="M42.2623 30.5916C42.5206 30.6137 42.7789 30.6285 43.0298 30.6285C43.2807 30.6285 43.5316 30.6432 43.7899 30.6654C44.7567 30.7096 45.7087 30.8646 46.6312 31.1303C47.5536 31.3886 48.3433 31.8756 49.0075 32.5915C49.6052 33.2114 50.0407 33.9346 50.3063 34.7686C50.572 35.6025 50.7122 36.4585 50.7196 37.3367C50.7048 37.5065 50.7048 37.6688 50.7048 37.8386C50.7048 38.0083 50.7048 38.1707 50.6901 38.3404C50.5941 40.1263 50.0776 41.6613 49.1477 42.9528C48.2178 44.2517 46.8452 45.1077 45.0371 45.5358L50.7048 56.1923H44.646L39.6867 46.1409H33.3401L32.6685 56.1923H27.2886L29.0007 30.5989H42.2623V30.5916ZM40.6756 35.1597H34.0854L33.65 41.6097H40.2402C40.2845 41.6318 40.3288 41.6466 40.3804 41.6466H40.5206C41.6571 41.6466 42.7125 41.4768 43.6718 41.13C44.6312 40.7831 45.1478 39.8754 45.229 38.4068C45.3323 36.8866 44.8969 35.9715 43.9375 35.6615C42.9708 35.3516 41.8859 35.1966 40.6682 35.1966V35.1597H40.6756Z" fill="white"/>
<path d="M54.3357 37.7205C55.0811 35.846 56.0921 34.3184 57.3688 33.1376C58.6456 31.9642 60.2765 31.1229 62.2617 30.6284C62.9849 30.4587 63.7303 30.3333 64.4978 30.2373C65.2653 30.1414 66.0254 30.0971 66.7855 30.0971C67.5973 30.075 68.4091 30.1119 69.2356 30.2004C70.0622 30.2964 70.8445 30.4513 71.5898 30.6653C73.4569 31.1377 74.9624 31.9716 76.0915 33.1597C77.2206 34.3479 78.0103 35.8829 78.4531 37.7574C78.6302 38.6134 78.7557 39.5138 78.8221 40.4658C78.8885 41.4178 78.8885 42.3698 78.8221 43.3144C78.7557 44.3328 78.6302 45.3365 78.4457 46.3106C78.2612 47.2848 78.0103 48.2146 77.6856 49.0928C76.9845 51.019 75.9808 52.5687 74.6672 53.7421C73.3536 54.9155 71.7079 55.7347 69.7301 56.1849C68.9552 56.3767 68.1656 56.5096 67.3538 56.5981C66.542 56.6793 65.7155 56.7236 64.8889 56.7236C64.1509 56.7236 63.4203 56.6793 62.6897 56.5834C61.9591 56.4875 61.2433 56.3546 60.5422 56.1922C58.6456 55.7421 57.1179 54.9303 55.9667 53.7495C54.808 52.5761 54.011 51.0264 53.5682 49.1002C53.3837 48.2663 53.2583 47.3659 53.1992 46.3918C53.1328 45.4177 53.1328 44.4288 53.1992 43.4325C53.2656 42.4362 53.3911 41.4399 53.5756 40.4584C53.7601 39.4695 54.011 38.5765 54.3283 37.7648V37.7279L54.3357 37.7205ZM59.7747 39.5433C59.568 40.1854 59.4057 40.8348 59.2876 41.4842C59.1769 42.141 59.0957 42.7831 59.0515 43.4251C59.0072 44.0893 59.0072 44.7535 59.0441 45.4029C59.081 46.0597 59.1548 46.6944 59.2581 47.3069C59.4426 48.3991 59.819 49.3511 60.3651 50.1555C60.9186 50.9673 61.723 51.5577 62.793 51.9415C63.1842 52.0817 63.6048 52.1924 64.055 52.2588C64.4978 52.3326 64.948 52.3695 65.4055 52.3695C65.8631 52.3695 66.3132 52.3326 66.7634 52.2588C67.2209 52.185 67.6564 52.0817 68.0696 51.9415C69.1914 51.5651 70.0843 50.9673 70.7559 50.1555C71.4275 49.3511 71.9219 48.3991 72.2319 47.3069C72.4164 46.687 72.5713 46.0523 72.6968 45.4029C72.8223 44.7461 72.9108 44.0893 72.9551 43.4251C72.9994 42.7831 72.9994 42.1336 72.9551 41.4842C72.9182 40.8274 72.8444 40.1927 72.7411 39.5802C72.5787 38.488 72.2097 37.5286 71.6489 36.7094C71.088 35.8903 70.2688 35.2999 69.1987 34.9457C68.8076 34.8054 68.387 34.6947 67.9368 34.6209C67.4866 34.5471 67.0438 34.5176 66.5863 34.5176C66.1287 34.5176 65.6786 34.5545 65.2284 34.6209C64.7708 34.6947 64.3354 34.7981 63.9222 34.9457C62.8004 35.3294 61.9222 35.9198 61.2728 36.7242C60.6234 37.536 60.1215 38.4806 59.7599 39.5728V39.5359L59.7747 39.5433Z" fill="white"/>
<path d="M91.3238 35.1598C90.1577 35.1819 89.1615 35.4254 88.3349 35.8904C87.5084 36.3553 87.0508 37.2409 86.9623 38.5471C86.8958 39.5434 87.1837 40.2592 87.8331 40.6873C88.4825 41.1153 89.2574 41.3293 90.1577 41.3293L97.2867 41.2924C97.545 41.3146 97.818 41.3293 98.1058 41.3293C98.3936 41.3293 98.6741 41.3441 98.9619 41.3662C99.7884 41.4105 100.6 41.5507 101.397 41.7795C102.187 42.0083 102.873 42.4141 103.456 43.0119C103.995 43.5359 104.379 44.1632 104.615 44.9012C104.851 45.6392 104.976 46.3993 104.999 47.1815C105.006 47.4177 105.006 47.6539 104.999 47.8752C104.999 48.104 104.984 48.3328 104.969 48.569C104.726 51.543 103.766 53.5503 102.106 54.613C100.445 55.6757 98.2461 56.1997 95.5155 56.1997H81.1838L81.4864 51.639H94.962C96.1502 51.6611 97.1907 51.4692 98.0837 51.0707C98.9767 50.6648 99.3899 49.7497 99.3161 48.3254C99.2719 47.2111 98.9029 46.5174 98.2092 46.2591C97.5155 46.0008 96.6815 45.8532 95.7074 45.831L89.3681 45.7941C86.7261 45.8163 84.6819 45.2923 83.2207 44.2075C81.7595 43.13 81.1396 41.1743 81.3462 38.3479C81.5897 35.3812 82.5565 33.3517 84.2317 32.2742C85.9069 31.1968 88.1135 30.6507 90.8441 30.6507L104.925 30.6138L104.622 35.1745H91.3311L91.3238 35.1598Z" fill="white"/>
<path d="M118.23 35.1598C117.064 35.1819 116.068 35.4254 115.242 35.8904C114.415 36.3553 113.958 37.2409 113.869 38.5471C113.803 39.5434 114.09 40.2592 114.74 40.6873C115.389 41.1153 116.164 41.3293 117.064 41.3293L124.193 41.2924C124.452 41.3146 124.725 41.3293 125.013 41.3293C125.3 41.3293 125.581 41.3441 125.869 41.3662C126.695 41.4105 127.507 41.5507 128.304 41.7795C129.094 42.0083 129.78 42.4141 130.363 43.0119C130.902 43.5359 131.285 44.1632 131.522 44.9012C131.758 45.6392 131.883 46.3993 131.905 47.1815C131.913 47.4177 131.913 47.6539 131.905 47.8752C131.905 48.104 131.891 48.3328 131.876 48.569C131.632 51.543 130.673 53.5503 129.012 54.613C127.352 55.6757 125.153 56.1997 122.422 56.1997H108.091L108.393 51.639H121.869C123.057 51.6611 124.097 51.4692 124.99 51.0707C125.883 50.6648 126.297 49.7497 126.223 48.3254C126.179 47.2111 125.81 46.5174 125.116 46.2591C124.422 46.0008 123.588 45.8532 122.614 45.831L116.275 45.7941C113.633 45.8163 111.589 45.2923 110.127 44.2075C108.666 43.13 108.046 41.1743 108.253 38.3479C108.496 35.3812 109.463 33.3517 111.138 32.2742C112.814 31.1968 115.02 30.6507 117.751 30.6507L131.832 30.6138L131.529 35.1745H118.238L118.23 35.1598Z" fill="white"/>
<path d="M0.92041 65.1662V65.1514C0.92041 63.5943 2.08643 62.2954 3.70999 62.2954C4.71365 62.2954 5.31142 62.6496 5.86491 63.1736L5.43688 63.6312C4.97195 63.1884 4.44798 62.871 3.70261 62.871C2.47756 62.871 1.56984 63.8673 1.56984 65.1367V65.1514C1.56984 66.4281 2.49232 67.4318 3.70261 67.4318C4.46274 67.4318 4.95719 67.1366 5.48116 66.6348L5.89443 67.0333C5.3188 67.6163 4.69151 68 3.68785 68C2.09381 68 0.92041 66.7455 0.92041 65.1588V65.1662Z" fill="white"/>
<path d="M7.09009 62.3914H9.45902C10.138 62.3914 10.6841 62.5981 11.0309 62.9449C11.2966 63.2106 11.459 63.6017 11.459 64.0297V64.0445C11.459 64.9596 10.8317 65.4983 9.96085 65.6533L11.6582 67.9042H10.8907L9.28928 65.7566H7.70999V67.9042H7.09009V62.384V62.3914ZM9.40736 65.2031C10.2339 65.2031 10.8243 64.7751 10.8243 64.0666V64.0519C10.8243 63.3729 10.3077 62.967 9.41474 62.967H7.70999V65.2031H9.40736Z" fill="white"/>
<path d="M12.9497 62.3914H13.5696V67.9115H12.9497V62.3914Z" fill="white"/>
<path d="M15.2964 62.3914H15.9237L17.931 65.4023L19.9383 62.3914H20.5656V67.9115H19.9457V63.4393L17.9384 66.3986H17.9089L15.9015 63.4541V67.9189H15.2964V62.3987V62.3914Z" fill="white"/>
<path d="M22.2998 62.3914H22.9197V67.9115H22.2998V62.3914Z" fill="white"/>
<path d="M24.6541 62.3914H25.2371L28.713 66.8119V62.3914H29.3181V67.9115H28.8237L25.2592 63.3876V67.9115H24.6541V62.3914Z" fill="white"/>
<path d="M33.0303 62.3545H33.6133L36.1298 67.9115H35.4582L34.8088 66.4503H31.8052L31.1484 67.9115H30.5063L33.0229 62.3545H33.0303ZM34.5653 65.8821L33.3107 63.0777L32.0487 65.8821H34.5653Z" fill="white"/>
<path d="M37.3254 62.3914H37.9453V67.3359H41.0523V67.9115H37.3254V62.3914Z" fill="white"/>
<path d="M42.3657 62.3913H42.9856V67.9114H42.3657V62.3913ZM43.2144 60.8858L43.8343 61.1662L42.9266 61.8968H42.4248L43.2144 60.8784V60.8858Z" fill="white"/>
<path d="M44.3511 67.1069L44.7348 66.6494C45.3105 67.1733 45.8639 67.4316 46.6241 67.4316C47.3842 67.4316 47.8565 67.0405 47.8565 66.4944V66.4796C47.8565 65.9704 47.5835 65.6752 46.4248 65.4317C45.1555 65.1586 44.5725 64.7454 44.5725 63.8376V63.8229C44.5725 62.9594 45.34 62.3174 46.3879 62.3174C47.1923 62.3174 47.7679 62.5462 48.3288 62.9963L47.9672 63.476C47.458 63.0554 46.9414 62.8783 46.3732 62.8783C45.6573 62.8783 45.1998 63.2694 45.1998 63.7712V63.786C45.1998 64.3099 45.4802 64.5978 46.6979 64.8561C47.9303 65.1217 48.4986 65.5719 48.4986 66.4132V66.428C48.4986 67.3726 47.7089 67.9925 46.6167 67.9925C45.7385 67.9925 45.0226 67.6973 44.3585 67.1069H44.3511Z" fill="white"/>
<path d="M51.2068 62.967H49.3545V62.3914H53.6865V62.967H51.8341V67.9115H51.2068V62.967Z" fill="white"/>
<path d="M55.0222 62.3914H55.6421V67.9115H55.0222V62.3914Z" fill="white"/>
<path d="M57.1255 65.1662V65.1514C57.1255 63.5943 58.2915 62.2954 59.9151 62.2954C60.9187 62.2954 61.5165 62.6496 62.07 63.1736L61.642 63.6312C61.177 63.1884 60.6604 62.871 59.9077 62.871C58.6826 62.871 57.7749 63.8673 57.7749 65.1367V65.1514C57.7749 66.4281 58.6974 67.4318 59.9077 67.4318C60.6678 67.4318 61.1623 67.1366 61.6862 66.6348L62.0995 67.0333C61.5239 67.6163 60.8966 68 59.8929 68C58.2989 68 57.1255 66.7455 57.1255 65.1588V65.1662Z" fill="white"/>
<path d="M65.3393 62.3545H65.9223L68.4389 67.9115H67.7673L67.1179 66.4503H64.1143L63.4575 67.9115H62.8154L65.332 62.3545H65.3393ZM66.8743 65.8821L65.6198 63.0777L64.3578 65.8821H66.8743Z" fill="white"/>
<path d="M71.863 65.1662V65.1514C71.863 63.5943 73.0291 62.2954 74.6526 62.2954C75.6563 62.2954 76.254 62.6496 76.8075 63.1736L76.3795 63.6312C75.9146 63.1884 75.3906 62.871 74.6452 62.871C73.4202 62.871 72.5125 63.8673 72.5125 65.1367V65.1514C72.5125 66.4281 73.4349 67.4318 74.6452 67.4318C75.4054 67.4318 75.8998 67.1366 76.4238 66.6348L76.8371 67.0333C76.2614 67.6163 75.6341 68 74.6305 68C73.0364 68 71.863 66.7455 71.863 65.1588V65.1662Z" fill="white"/>
<path d="M78.0842 62.3914H78.7041V67.9115H78.0842V62.3914Z" fill="white"/>
<path d="M80.431 62.3914H82.7778C83.405 62.3914 83.9069 62.5759 84.2168 62.8784C84.4456 63.1146 84.5711 63.4098 84.5711 63.764V63.7788C84.5711 64.4946 84.1283 64.8636 83.6929 65.0555C84.3497 65.2547 84.8736 65.6311 84.8736 66.3912V66.406C84.8736 67.3506 84.0766 67.9115 82.8737 67.9115H80.4236V62.3914H80.431ZM83.9512 63.8526C83.9512 63.3065 83.5157 62.9522 82.7261 62.9522H81.0509V64.8488H82.6818C83.4272 64.8488 83.9512 64.5094 83.9512 63.8599V63.8452V63.8526ZM82.7925 65.4023H81.0509V67.3506H82.9032C83.7371 67.3506 84.2611 66.9816 84.2611 66.3691V66.3543C84.2611 65.7566 83.7593 65.4097 82.7925 65.4097V65.4023Z" fill="white"/>
<path d="M86.2317 62.3914H90.2169V62.9596H86.8517V64.8415H89.8626V65.4097H86.8517V67.3432H90.2538V67.9115H86.2244V62.3914H86.2317Z" fill="white"/>
<path d="M91.6189 62.3914H93.9878C94.6668 62.3914 95.2129 62.5981 95.5597 62.9449C95.8254 63.2106 95.9878 63.6017 95.9878 64.0297V64.0445C95.9878 64.9596 95.3605 65.4983 94.4897 65.6533L96.187 67.9042H95.4195L93.8181 65.7566H92.2388V67.9042H91.6189V62.384V62.3914ZM93.9436 65.2031C94.7701 65.2031 95.3605 64.7751 95.3605 64.0666V64.0519C95.3605 63.3729 94.8365 62.967 93.9509 62.967H92.2462V65.2031H93.9436Z" fill="white"/>
<path d="M97.4268 62.3914H98.0098L101.486 66.8119V62.3914H102.091V67.9115H101.596L98.0319 63.3876V67.9115H97.4268V62.3914Z" fill="white"/>
<path d="M103.766 62.3913H107.751V62.9595H104.386V64.8414H107.397V65.4096H104.386V67.3432H107.788V67.9114H103.759V62.3913H103.766ZM106.305 60.8858L106.925 61.1662L106.017 61.8968H105.515L106.305 60.8784V60.8858Z" fill="white"/>
<path d="M110.615 62.967H108.762V62.3914H113.102V62.967H111.249V67.9115H110.622V62.967H110.615Z" fill="white"/>
<path d="M114.423 62.3914H115.043V67.9115H114.423V62.3914Z" fill="white"/>
<path d="M116.533 65.1662V65.1514C116.533 63.5943 117.699 62.2954 119.323 62.2954C120.326 62.2954 120.924 62.6496 121.478 63.1736L121.05 63.6312C120.585 63.1884 120.068 62.871 119.315 62.871C118.09 62.871 117.183 63.8673 117.183 65.1367V65.1514C117.183 66.4281 118.105 67.4318 119.315 67.4318C120.076 67.4318 120.57 67.1366 121.094 66.6348L121.5 67.0333C120.924 67.6163 120.297 68 119.293 68C117.699 68 116.526 66.7455 116.526 65.1588L116.533 65.1662Z" fill="white"/>
<path d="M124.74 62.3545H125.323L127.839 67.9115H127.168L126.518 66.4503H123.515L122.858 67.9115H122.223L124.74 62.3545ZM126.282 65.8821L125.027 63.0777L123.766 65.8821H126.282Z" fill="white"/>
</svg>
