<svg width="24" height="24" viewBox="0 0 24 24" fill="none" xmlns="http://www.w3.org/2000/svg">
<g clip-path="url(#clip0_430_7078)">
<path d="M23.4587 6.88224L17.049 0.226055C16.8399 0.00920173 16.5194 -0.0588696 16.2405 0.053439C15.9604 0.166831 15.777 0.438033 15.777 0.739749V3.9447H15.5305C10.2292 3.9447 5.91602 8.25793 5.91602 13.5592V15.0383C5.91602 15.3814 6.15761 15.6674 6.49182 15.7454C6.54617 15.7591 6.60034 15.7651 6.65451 15.7651C6.93365 15.7651 7.20088 15.6013 7.32998 15.344C8.71651 12.5701 11.5042 10.8473 14.6055 10.8473H15.777V14.0521C15.777 14.354 15.9604 14.6252 16.2405 14.7375C16.5176 14.8509 16.8399 14.7819 17.049 14.5649L23.4587 7.90872C23.7348 7.62181 23.7348 7.17023 23.4587 6.88224Z" fill="#06834D"/>
<path d="M20.7081 23.6666H2.9583C1.3273 23.6666 0 22.3395 0 20.7083V6.903C0 5.272 1.3273 3.9447 2.9583 3.9447H5.9166C6.4619 3.9447 6.90265 4.38545 6.90265 4.93074C6.90265 5.47604 6.4619 5.91678 5.9166 5.91678H2.9583C2.41391 5.91678 1.97208 6.35861 1.97208 6.903V20.7083C1.97208 21.2527 2.41391 21.6945 2.9583 21.6945H20.7081C21.2523 21.6945 21.6942 21.2527 21.6942 20.7083V12.8196C21.6942 12.2743 22.1349 11.8334 22.6802 11.8334C23.2257 11.8334 23.6664 12.2743 23.6664 12.8196V20.7083C23.6664 22.3395 22.3391 23.6666 20.7081 23.6666Z" fill="#06834D"/>
</g>
<defs>
<clipPath id="clip0_430_7078">
<rect width="23.6667" height="23.6667" fill="white"/>
</clipPath>
</defs>
</svg>
